<svg width="166" height="256" viewBox="0 0 166 256" fill="none" xmlns="http://www.w3.org/2000/svg">
<path d="M165.312 246.059C165.312 246.059 161.259 255.526 91.6252 255.989C31.016 256.392 19.9277 245.899 19.9277 245.899C19.9277 245.899 22.9855 236.006 91.6486 235.243C159.894 234.485 165.312 246.059 165.312 246.059Z" fill="#D8D3D2"/>
<path d="M162.283 166.699C162.283 165.699 161.084 164.135 160.275 163.367C159.963 163.07 159.939 163.033 159.604 162.7C158.66 161.758 157.195 160.307 156.254 159.365C155.312 158.423 153.631 157.415 153.574 157.364C152.833 156.631 154.169 155.061 154.354 153.445C154.877 148.706 154.28 143.797 151.314 139.915C150.201 138.451 148.945 137.101 147.566 135.884C147.852 135.476 149.867 133.117 150.491 132.284C151.056 131.537 152.603 129.295 152.776 128.877C152.989 128.171 153.001 127.456 152.581 127.001C152.648 127.224 152.503 127.532 151.887 127.855C151.47 128.076 150.643 128.357 150.204 128.524C149.229 128.897 148.209 129.131 147.269 129.575C145.832 130.254 144.625 131.35 143.137 131.943C142.407 132.219 141.621 132.313 140.846 132.218C140.584 132.188 140.323 132.145 140.066 132.089C138.564 131.812 135.61 130.287 135.483 130.207C135.187 130.022 133.673 129.521 133.673 129.521L133.755 129.482C130.034 129.059 126.062 129.848 122.554 131.338C122.045 131.555 120.194 132.405 119.783 132.658C118.572 133.497 117.413 134.409 116.313 135.389C114.98 136.67 113.825 138.132 112.63 139.579C111.058 141.483 108.607 145.26 107.573 147.503C105.233 152.563 103.962 155.833 102.464 161.22C101.022 166.432 100.12 171.779 99.7708 177.175C99.7298 177.803 99.4724 180.387 99.3807 181.046C98.7275 185.446 99.2442 190.017 98.6007 194.438C98.4589 195.544 98.3938 196.659 98.4057 197.774C98.4057 198.164 98.4447 198.554 98.4232 198.944C98.3511 200.157 98.1327 201.359 98.0488 202.595C97.9387 204.229 97.7434 205.856 97.4638 207.47C97.3596 208.203 97.2084 208.929 97.0114 209.643C96.6662 210.75 96.2313 211.836 95.8608 212.983C95.1432 215.22 94.2851 216.883 92.4208 218.231C91.0948 219.19 89.601 220.105 88.7722 221.614C88.1716 222.712 88.1735 223.982 88.3237 225.214C88.4221 225.696 88.5665 226.168 88.7547 226.622C90.2211 229.547 93.6572 229.92 94.3417 229.937C95.2562 229.951 96.1683 229.843 97.0543 229.616C97.2354 227.94 97.7669 226.322 98.6144 224.865C99.8975 222.685 101.992 220.869 104.336 220.257C106.323 219.738 108.544 219.612 110.139 219.976C110.294 220.011 110.477 220.056 110.684 220.111C110.89 220.165 111.116 220.23 111.36 220.306C111.604 220.382 111.861 220.452 112.127 220.532C113.37 220.897 114.593 221.324 115.793 221.813C116.141 221.969 116.487 222.13 116.83 222.297L117.129 222.443C117.38 222.566 117.628 222.691 117.876 222.817L118.178 222.972C118.438 223.108 118.698 223.245 118.958 223.383L119.18 223.504C119.503 223.679 119.823 223.857 120.142 224.036H120.153C121.415 224.746 122.657 225.489 123.905 226.222C124.262 226.433 124.621 226.644 124.978 226.85L125.471 227.137L125.812 227.332C125.976 227.428 126.14 227.527 126.306 227.613L126.651 227.808L127.15 228.083L127.493 228.278C127.665 228.371 127.837 228.461 128.01 228.553L128.34 228.724L128.909 229.013L129.192 229.155C129.479 229.296 129.767 229.433 130.054 229.567C130.268 229.666 130.485 229.761 130.703 229.853L130.807 229.896C131.021 229.984 131.236 230.07 131.452 230.15C132.554 230.562 133.692 230.872 134.851 231.076C135.063 231.114 135.276 231.147 135.489 231.176L135.577 231.187C135.772 231.213 135.967 231.236 136.162 231.256H136.222C136.668 231.298 137.114 231.324 137.56 231.332C137.774 231.332 137.991 231.332 138.205 231.332H138.274C138.482 231.332 138.691 231.318 138.9 231.306H138.923C139.371 231.277 139.82 231.232 140.265 231.166C142.011 230.914 143.701 230.36 145.257 229.528C145.485 229.405 145.711 229.274 145.936 229.138L146.07 229.054C146.292 228.917 146.511 228.775 146.727 228.625C146.893 228.51 147.055 228.389 147.217 228.266L147.365 228.149C147.478 228.061 147.589 227.97 147.7 227.878L147.858 227.745C147.971 227.65 148.081 227.55 148.192 227.453L148.322 227.334C148.475 227.195 148.623 227.053 148.769 226.909C149.987 225.673 151.096 224.334 152.084 222.907C152.246 222.679 152.408 222.451 152.566 222.223C152.677 222.063 152.786 221.899 152.892 221.731C153.22 221.212 153.51 220.669 153.759 220.107C154.118 219.314 154.37 218.476 154.508 217.617C154.566 217.05 154.586 216.48 154.569 215.91C154.602 215.873 154.727 215.951 154.896 216.092C154.83 212.946 154.026 209.767 152.78 206.776C150.206 200.598 145.881 195.922 141.86 190.799C140.859 189.523 139.73 188.232 138.968 186.731C137.687 184.211 137.213 181.483 138.051 178.603C138.49 177.097 139.052 175.838 140.033 174.621C140.338 174.219 140.685 173.851 141.068 173.523C142.47 172.452 144.159 171.791 145.514 170.717C146.811 169.681 147.961 168.474 148.933 167.128H148.9C148.9 167.128 149.836 165.477 149.875 165.395C150.988 163.199 151.998 162.817 154.229 163.386C155.745 163.776 157.847 165.375 159.3 165.953C160.126 166.282 162.155 167.062 162.149 167.456C162.297 167.224 162.283 167.086 162.283 166.699Z" fill="#EFA65E"/>
<path d="M92.4167 218.217C94.281 216.868 95.1469 215.206 95.8567 212.969C96.2233 211.823 96.6621 210.737 97.0073 209.629C97.2043 208.915 97.3554 208.19 97.4597 207.457C97.5741 206.782 97.6748 206.105 97.762 205.427C97.6781 205.536 97.5903 205.641 97.5006 205.746C96.2362 207.185 94.7607 208.424 93.1246 209.42C93.0622 209.459 92.9979 209.492 92.9296 209.526C90.9795 210.501 89.3336 211.671 88.0719 213.492C87.5222 214.255 87.1899 215.153 87.1105 216.09C86.9432 217.314 87.1124 218.561 87.6 219.697C87.7446 220.016 87.9535 220.302 88.2135 220.537C88.4735 220.772 88.7792 220.951 89.1113 221.062C89.9713 219.863 91.2584 219.058 92.4167 218.217Z" fill="#E59055"/>
<path d="M121.99 151.134C122.267 152.027 123.061 152.694 123.921 152.976C124.746 153.255 126.639 152.889 126.776 152.832C127.946 152.35 128.837 151.824 130.056 151.625C130.008 151.234 130.03 150.838 130.12 150.455C129.949 147.064 128.966 146.293 127 145.266C126.372 144.938 125.015 144.864 124.444 144.954C123.897 145.042 123.369 145.224 122.884 145.492C122.078 145.932 121.452 146.64 121.113 147.493C120.67 148.714 120.918 149.919 121.517 151.003C121.63 150.755 121.889 150.794 121.99 151.134Z" fill="#FFEFE1"/>
<path d="M133.123 155.551C132.718 154.952 132.148 154.513 131.631 154.022C131.51 153.977 131.395 153.919 131.288 153.846C130.899 153.547 130.576 153.169 130.342 152.737C130.282 152.618 130.235 152.493 130.202 152.364C129.133 152.596 128.115 153.022 127.199 153.62C126.99 153.758 126.224 155.063 125.937 155.863C125.586 156.838 125.849 157.881 125.937 158.671C125.961 158.866 125.9 159.041 125.787 159.014C126.177 160.09 126.871 161.028 127.918 161.563C128.566 161.892 129.328 162.138 130.128 162.021C133.429 161.534 134.089 158.762 133.548 156.377C133.439 156.087 133.296 155.809 133.123 155.551Z" fill="#FFEFE1"/>
<path d="M133.135 151.637C132.8 151.301 133.673 149.866 132.334 149.197C131.542 148.807 130.659 149.306 130.315 149.899C130.226 150.069 130.16 150.251 130.12 150.439C130.03 150.822 130.008 151.219 130.056 151.609C128.837 151.804 127.946 152.335 126.776 152.816C126.639 152.873 124.746 153.24 123.921 152.961C123.061 152.67 122.267 152.011 121.99 151.118C121.889 150.786 121.624 150.747 121.509 150.979C121.487 151.023 121.472 151.07 121.464 151.118C121.284 152.194 122.517 153.123 123.346 153.53C123.884 153.776 124.462 153.923 125.052 153.967C125.376 154.023 125.709 154.009 126.027 153.926C124.808 155.196 124.371 157.436 125.676 158.924C125.705 158.962 125.744 158.99 125.789 159.006C125.902 159.033 125.963 158.86 125.939 158.663C125.852 157.883 125.588 156.82 125.939 155.855C126.23 155.055 126.992 153.751 127.201 153.612C128.117 153.014 129.135 152.588 130.204 152.356C130.237 152.485 130.284 152.61 130.345 152.729C130.578 153.161 130.901 153.539 131.29 153.838C131.397 153.911 131.513 153.97 131.634 154.014C132.152 154.209 132.999 154.347 133.48 153.975C134.797 152.949 133.262 151.758 133.135 151.637Z" fill="#201600"/>
<path d="M161.948 167.709L161.925 167.725C161.929 167.724 161.934 167.722 161.938 167.72C161.942 167.717 161.945 167.714 161.948 167.709Z" fill="#E5A763"/>
<path d="M152.593 127.001C152.562 126.903 152.497 126.819 152.41 126.765C151.511 126.165 147.461 126.664 147.145 126.701C145.253 126.925 143.379 127.227 141.489 127.496C139.6 127.766 136.173 128.577 135.602 128.76C134.973 128.96 134.357 129.198 133.757 129.474L133.675 129.513C133.675 129.513 135.189 130.014 135.485 130.199C135.612 130.279 138.566 131.804 140.068 132.081C140.325 132.137 140.586 132.18 140.848 132.21C141.626 132.31 142.416 132.218 143.151 131.943C144.639 131.358 145.846 130.254 147.283 129.575C148.223 129.131 149.251 128.897 150.218 128.524C150.657 128.356 151.484 128.076 151.901 127.855C152.515 127.537 152.66 127.223 152.593 127.001Z" fill="#724C33"/>
<path d="M162.151 167.479C162.158 167.464 162.162 167.447 162.163 167.431C162.099 167.524 162.029 167.613 161.952 167.696C162.036 167.642 162.104 167.567 162.151 167.479Z" fill="#724C33"/>
<path d="M159.313 165.927C157.863 165.342 155.76 163.747 154.243 163.361C152.012 162.791 151.002 163.166 149.889 165.369C149.848 165.451 148.914 167.103 148.914 167.103H148.947C149.161 167.113 150.474 167.173 150.988 167.234C151.503 167.294 153.356 167.507 153.765 167.561C155.834 167.836 157.19 168.236 159.278 168.102C159.709 168.072 161.291 168.127 161.929 167.711L161.952 167.696C162.029 167.613 162.099 167.524 162.163 167.431C162.168 167.037 160.14 166.257 159.313 165.927Z" fill="#724C33"/>
<path d="M148.375 142.779C147.41 143.107 143.97 144.924 143.305 145.527C142.768 145.884 142.269 146.294 141.815 146.752C141.3 147.411 141.07 147.641 140.895 147.994C140.852 148.079 140.842 148.176 140.866 148.268C140.89 148.36 140.947 148.44 141.025 148.493C141.759 148.981 143.009 148.38 143.709 148.103C143.949 148.008 145.811 147.596 146.408 147.44C148.5 146.877 150.666 146.634 152.831 146.719C153.278 146.669 153.721 146.59 154.157 146.481C153.842 144.75 153.243 143.083 152.385 141.547C151.189 141.771 149.965 141.915 148.927 142.577C148.736 142.639 148.559 142.705 148.375 142.779Z" fill="#D1623F"/>
<path d="M141.521 140.919C141.521 140.919 141.185 141.588 141.521 141.923C141.649 142.052 142.139 142.153 142.496 142.036C142.853 141.919 143.126 141.841 143.202 141.806C144.132 141.578 145.005 140.876 145.918 140.636C147.663 140.17 149.463 140.168 151.226 139.819C150.282 138.59 149.238 137.441 148.106 136.383L148.011 136.438C147.886 136.508 142.556 139.043 141.521 140.919Z" fill="#D1623F"/>
<path d="M153.968 149.32C152.057 149.267 150.263 149.771 148.508 150.465C147.941 150.626 147.398 150.86 146.891 151.161L146.725 151.237C146.646 151.27 146.579 151.326 146.53 151.397C146.45 151.453 146.37 151.508 146.292 151.569C145.961 151.832 146.142 152.462 146.546 152.544C147.683 152.739 148.634 152.409 149.763 152.434C150.984 152.462 152.037 153.173 153.192 153.476C153.567 153.565 153.957 153.57 154.335 153.491V153.452C154.481 152.164 154.531 150.867 154.487 149.572C154.453 149.554 154.417 149.539 154.381 149.527C154.332 149.464 154.27 149.412 154.198 149.377C154.127 149.341 154.048 149.322 153.968 149.32Z" fill="#D1623F"/>
<path d="M119.069 136.451C119.328 136.808 119.626 137.135 119.956 137.426C120.333 137.877 121.906 139.753 122.523 140.028C122.616 140.071 123.369 140.16 123.509 139.93C124.003 139.528 123.207 138.356 123.197 138.353C122.883 137.539 122.488 136.763 122.193 135.921C122.154 135.808 122.121 135.689 122.082 135.574C122.072 135.461 122.04 135.351 121.988 135.25C121.975 135.225 121.967 135.201 121.955 135.176C121.623 134.112 121.395 133.018 121.275 131.909C120.651 132.202 120.009 132.512 119.787 132.649C119.564 132.785 118.531 133.542 117.614 134.277C117.762 134.604 117.928 134.922 118.112 135.23C118.388 135.669 118.709 136.078 119.069 136.451Z" fill="#D1623F"/>
<path d="M118.628 141.262C118.762 141.271 118.896 141.271 119.03 141.262C120.415 140.909 120.641 140.336 119.974 139.991C118.172 139.059 116.942 137.306 116.298 135.392C115.46 136.219 114.666 137.09 113.921 138.002C115.263 139.49 117.7 141.245 118.628 141.262Z" fill="#D1623F"/>
<path d="M125.101 135.447C125.101 134.289 125.054 133.117 125.138 131.958C125.179 131.41 125.39 130.835 125.549 130.27C124.532 130.562 123.533 130.917 122.558 131.33L122.521 131.346C122.603 133.087 123.691 135.19 124.502 136.05C124.654 136.213 125.105 136.229 125.101 135.447Z" fill="#D1623F"/>
<path d="M142.354 169.855C141.18 168.866 140.232 167.639 139.571 166.255C139.364 165.828 138.886 166.089 138.853 166.592C138.853 166.69 138.84 167.544 138.853 167.655C138.935 168.915 140.078 170.707 140.587 171.514C140.926 172.06 141.325 172.566 141.778 173.022C142.621 172.474 143.533 172.015 144.374 171.495C144.359 171.466 144.341 171.44 144.321 171.415C143.779 170.781 142.976 170.36 142.354 169.855Z" fill="#D1623F"/>
<path d="M139.34 171.61C138.642 170.851 137.54 169.751 137.546 168.63C137.546 168.224 136.914 167.998 136.731 168.41C136.678 168.562 136.635 168.718 136.602 168.876C136.312 169.792 136.992 171.776 137.222 172.357C137.64 173.371 138.32 174.845 139.311 175.645C139.533 175.281 139.778 174.932 140.046 174.601C140.351 174.2 140.698 173.832 141.082 173.503C141.115 173.476 141.152 173.451 141.185 173.425C140.545 172.846 139.923 172.242 139.34 171.61Z" fill="#D1623F"/>
<path d="M147.393 168.252C145.878 167.372 144.429 166.366 142.882 165.545C142.564 165.375 142.061 165.598 142.135 165.95C142.237 166.339 142.362 166.721 142.51 167.095C143.151 168.388 144.296 169.843 145.608 170.629C146.358 170.025 147.058 169.362 147.701 168.646C147.679 168.562 147.641 168.484 147.588 168.416C147.535 168.349 147.468 168.293 147.393 168.252Z" fill="#D1623F"/>
<path d="M130.362 189.767C128.867 190.432 127.335 191.011 125.774 191.501C125.009 191.747 124.648 191.938 124.313 192.228C124.235 192.308 124.179 192.406 124.151 192.514C124.122 192.622 124.122 192.735 124.151 192.843C124.179 192.951 124.235 193.049 124.313 193.129C124.391 193.208 124.489 193.266 124.596 193.297C129.962 194.369 136.053 192.246 140.618 189.202C139.995 188.426 139.447 187.593 138.98 186.715C138.587 185.949 138.272 185.145 138.038 184.317H138.024C137.815 184.416 134.305 187.959 130.362 189.767Z" fill="#D1623F"/>
<path d="M137.591 195.04C136.051 195.723 134.822 196.446 133.178 196.826C132.187 197.056 130.114 197.955 129.931 198.076C128.597 198.938 128.371 199.691 129.264 200.026C132.429 201.197 134.785 200.846 137.423 200.456C139.13 200.204 140.778 199.925 142.412 199.338C144.001 198.769 145.507 197.998 147.092 197.415L147.145 197.398C145.817 195.658 144.415 193.966 143.038 192.242C142.548 192.513 142.02 192.743 141.616 192.967C140.29 193.693 138.985 194.426 137.591 195.04Z" fill="#D1623F"/>
<path d="M146.275 202.361C144.816 203.17 143.285 203.843 141.702 204.37C140.001 204.917 138.233 204.955 136.768 206.095C136.46 206.335 136.55 206.942 136.897 207.1C137.21 207.229 137.531 207.338 137.858 207.425C139.826 208.028 142.4 207.538 144.305 207.199C146.911 206.737 149.598 205.469 151.731 204.469C150.941 202.943 150.055 201.469 149.077 200.056C148.241 200.92 147.344 201.78 146.275 202.361Z" fill="#D1623F"/>
<path d="M105.652 201.021C106.2 200.604 107.017 199.718 106.766 199.2C106.594 198.853 105.516 198.862 105.046 198.765C103.825 198.507 101.826 198.474 100.448 197.79L100.253 197.692C99.9582 197.557 99.694 197.364 99.4756 197.125C99.2572 196.886 99.089 196.605 98.9811 196.3C98.9428 196.174 98.8751 196.059 98.7836 195.964C98.692 195.87 98.5792 195.798 98.4545 195.756C98.4038 196.485 98.3843 197.218 98.3921 197.772C98.3921 198.162 98.4292 198.552 98.4077 198.942C98.3512 199.884 98.2127 200.818 98.1074 201.768C100.568 203.246 103.577 202.603 105.652 201.021Z" fill="#D1623F"/>
<path d="M101.992 209.247C102.663 209.247 103.191 208.72 103.332 208.578C103.823 208.073 103.946 207.244 103.104 207.039C102.77 206.957 102.323 206.903 102.091 206.844C101.668 206.729 100.742 206.181 100.309 205.965C99.8761 205.748 99.4978 205.471 99.0766 205.251C98.6765 205.08 98.2585 204.954 97.8304 204.877C97.7316 205.742 97.6081 206.605 97.4599 207.464C97.3566 208.049 97.2649 208.66 97.1167 209.247C97.1595 209.262 97.2031 209.274 97.2474 209.284C98.9303 209.637 100.258 209.247 101.992 209.247Z" fill="#D1623F"/>
<path d="M100.569 214.863C100.91 214.623 101.052 214.114 100.707 213.796C99.8158 212.977 98.3142 212.657 97.0584 212.236C96.9492 212.199 96.3973 211.981 96.2998 211.92L96.2276 211.881C96.1009 212.238 95.9761 212.599 95.8591 212.965C95.6319 213.7 95.351 214.417 95.0186 215.111C95.0644 215.117 95.1107 215.121 95.157 215.122C96.7307 216.053 99.1021 215.895 100.569 214.863Z" fill="#D1623F"/>
<path opacity="0.85" d="M133.713 142.221C134.159 140.331 132.989 138.437 131.099 137.991C129.209 137.545 127.315 138.716 126.869 140.606C126.423 142.496 127.594 144.389 129.484 144.835C131.373 145.281 133.267 144.111 133.713 142.221Z" fill="#58532A"/>
<path d="M130.225 139.211C127.3 139.363 127.532 143.907 130.461 143.755C133.39 143.602 133.154 139.059 130.225 139.211Z" fill="#201600"/>
<path d="M131.848 141.773C131.08 141.814 131.14 143.008 131.909 142.967C132.677 142.926 132.617 141.724 131.848 141.773Z" fill="white"/>
<path opacity="0.85" d="M139.005 163.025C140.947 163.025 142.521 161.451 142.521 159.509C142.521 157.567 140.947 155.993 139.005 155.993C137.063 155.993 135.489 157.567 135.489 159.509C135.489 161.451 137.063 163.025 139.005 163.025Z" fill="#58532A"/>
<path d="M138.933 157.298C136.008 157.45 136.24 161.994 139.169 161.842C142.098 161.69 141.862 157.146 138.933 157.298Z" fill="#201600"/>
<path d="M140.557 159.853C139.789 159.892 139.849 161.085 140.618 161.044C141.386 161.003 141.326 159.812 140.557 159.853Z" fill="white"/>
<path d="M123.775 148.421C121.154 144.423 118.352 140.644 115.066 137.167C113.896 135.937 112.691 134.71 111.308 133.721C110.528 133.156 109.266 132.426 108.346 132.656C108.168 132.701 108.151 132.918 108.346 132.889C109.728 132.656 111.134 134.004 111.918 134.644C113.104 135.652 114.222 136.737 115.265 137.892C116.517 139.236 117.757 140.584 118.88 142.04C120.509 144.148 121.897 146.428 123.311 148.684C123.494 148.977 123.964 148.704 123.775 148.413V148.421Z" fill="#60442C"/>
<path d="M130.21 158.879C132.531 162.101 135.044 165.204 136.895 168.735C137.795 170.451 138.571 172.229 139.218 174.055C139.649 175.274 140.218 176.59 140.159 177.903C140.159 178.098 140.429 178.117 140.491 177.948C140.881 176.893 140.081 175.29 139.736 174.309C139.127 172.578 138.416 170.885 137.607 169.238C135.731 165.434 133.075 162.076 130.674 158.601C130.479 158.316 130.009 158.601 130.21 158.872V158.879Z" fill="#60442C"/>
<path d="M125.844 148.049C124.664 143.347 123.777 138.517 121.944 134.008C121.17 132.096 120.284 130.232 119.29 128.425C118.779 127.5 118.053 125.71 116.95 125.348C116.755 125.285 116.667 125.554 116.819 125.658C117.944 126.414 118.594 127.988 119.225 129.139C120.291 131.083 121.212 133.104 121.981 135.184C123.541 139.396 124.321 143.831 125.333 148.191C125.411 148.526 125.936 148.386 125.852 148.049H125.844Z" fill="#60442C"/>
<path d="M128.65 159.15C129.532 161.528 130.213 163.975 130.684 166.467C131.107 168.696 131.711 171.196 131.052 173.433C130.984 173.667 131.325 173.751 131.411 173.532C132.191 171.528 131.575 169.047 131.216 167.019C130.749 164.299 130.067 161.62 129.174 159.008C129.059 158.682 128.537 158.827 128.656 159.15H128.65Z" fill="#60442C"/>
<path d="M134.126 73.2466C132.669 70.9787 129.9 69.6351 127.378 70.3878C124.75 71.1795 122.799 73.7342 121.288 76.0548C119.285 79.1399 117.76 82.5857 116.382 86.0374C113.09 94.2921 110.254 102.855 107.698 111.4C105.894 117.424 104.537 123.536 103.156 129.685C101.764 135.874 100.231 142.031 98.9244 148.242C97.8791 153.193 97.0172 158.187 96.2722 163.197C95.7847 166.479 95.3888 169.88 95.4922 173.232C95.4512 173.533 95.4064 173.829 95.3674 174.127C95.1638 175.532 95.0693 176.95 95.0846 178.369C98.1931 178.402 101.302 178.472 104.404 178.611C105.504 176.384 106.323 174.082 106.758 172.942C110.414 163.363 114.49 153.887 118.041 144.211C122.429 132.243 126.292 120.078 129.82 107.783C131.304 102.594 132.745 97.385 134.077 92.147C134.88 88.9684 135.522 85.7331 135.731 82.4414C135.92 79.3914 135.799 75.8598 134.126 73.2466Z" fill="#54541A"/>
<path d="M114.947 26.1478C111.47 22.9808 107.004 25.0031 104.332 28.2773C100.982 32.3725 98.521 37.5403 96.6547 42.5716C94.3985 48.6559 92.9495 55.0522 91.719 61.4446C90.4885 67.8371 89.2873 74.3153 88.2186 80.7643C85.7166 95.8327 84.5271 111.083 82.8012 126.254C81.9568 133.665 80.8823 141.091 80.114 148.526C79.8774 150.02 79.6466 151.515 79.4217 153.012C78.8679 156.656 78.2263 160.297 77.9689 163.983C77.7583 166.984 77.9279 169.981 77.6276 172.977C77.4599 174.66 77.2239 176.438 77.2668 178.176C78.4369 178.176 79.5953 178.223 80.7575 178.277C81.4147 178.308 82.0719 178.345 82.7291 178.384L86.0033 178.367C87.5205 174.512 88.3259 170.317 89.0903 166.261C90.4866 158.864 92.4055 151.559 93.9656 144.195C97.1325 129.339 100.46 114.519 103.948 99.7329C107.308 85.3821 111.511 71.2615 114.705 56.8678C116.07 50.6781 117.273 44.3871 117.722 38.0356C118.004 34.0672 118.002 28.9326 114.947 26.1478Z" fill="#54541A"/>
<path d="M72.3563 178.143C72.3797 178.217 72.4031 178.293 72.4285 178.369C74.3598 178.185 76.3005 178.12 78.2398 178.174C78.4228 177.262 78.553 176.34 78.6298 175.412C78.8151 172.653 78.8248 169.909 79.1232 167.156C79.4586 164.006 79.8018 160.861 80.0865 157.709C80.6843 151.344 80.8693 144.947 80.6404 138.557C80.3888 132.187 79.9383 125.831 79.6166 119.468C79.2948 113.105 79.3084 106.718 79.1524 100.336C78.9925 93.8534 78.6493 87.3771 78.2047 80.9105C77.8322 75.4503 77.2589 70.0075 77.1536 64.5297C77.0639 59.8709 77.0463 55.2004 76.4145 50.5806C75.8685 46.5732 74.7823 41.7194 71.9293 38.8293C69.0763 35.9393 66.3403 38.7884 64.9089 41.6726C60.3769 50.7581 59.7333 61.624 59.6631 71.7197C59.5773 84.3057 59.942 96.9267 61.4065 109.423C62.7092 120.566 63.7954 131.736 65.1117 142.879C65.7143 147.99 66.3929 153.181 67.327 158.32C67.7307 163.119 69.0665 167.803 70.5135 172.349C71.1271 174.279 71.7414 176.211 72.3563 178.143Z" fill="#54541A"/>
<path d="M36.7339 102.757C38.8907 112.744 40.6341 122.853 43.3369 132.693C44.6844 137.61 46.4122 142.366 47.9937 147.198C49.5207 151.865 50.954 156.559 52.479 161.239C53.9513 165.724 55.5075 170.174 57.3289 174.5C57.9373 175.953 58.5652 177.411 59.2263 178.848C62.091 178.784 64.9577 178.708 67.8224 178.653C68.148 177.226 68.3391 175.892 68.4464 175.13C69.5521 167.187 68.5829 159.223 67.7112 151.338C66.5412 140.759 65.2092 130.264 63.3586 119.799C59.6943 99.025 54.7411 78.5684 51.0359 57.8193C49.7293 50.4967 48.7874 43.1409 47.8553 35.752C47.2039 30.5959 46.4025 24.6188 43.7796 20.1512C42.8825 18.6164 41.576 17.1246 39.7682 17.1051C38.9313 17.1142 38.1304 17.4468 37.5334 18.0334C37.2337 18.1769 36.9472 18.3465 36.6773 18.5404C34.4249 20.1375 32.9858 22.3197 31.8274 24.9172C28.7072 31.9122 28.2724 40.1397 28.3016 47.7587C28.3309 56.228 28.9354 64.7578 30.3258 73.0867C31.9854 83.0926 34.5965 92.8665 36.7339 102.757Z" fill="#54541A"/>
<path d="M39.335 178.919C40.7723 178.919 42.2095 178.919 43.6467 178.897C45.9751 178.87 48.3269 178.843 50.6671 178.977C52.506 178.946 54.345 178.94 56.1839 178.925C55.9518 178.252 55.7159 177.593 55.4819 176.955C53.9998 172.92 52.1257 169.084 50.2439 165.254C41.9228 148.288 33.3814 131.449 24.132 115.041C21.9635 111.182 19.756 107.342 17.3964 103.61C15.5321 100.655 13.6424 97.3538 11.2146 94.8772C9.18647 92.8101 6.23597 91.2675 3.78859 93.5609C1.83849 95.394 1.08185 98.6097 0.789335 101.277C-0.0843106 109.197 2.85059 117.225 5.83425 124.289C9.27986 132.509 13.1622 140.54 17.4646 148.347C22.3263 157.122 28.0127 165.286 34.2765 172.946C35.9087 174.942 37.5799 176.976 39.335 178.919Z" fill="#54541A"/>
<path d="M97.8751 186.602C97.8612 186.605 97.8487 186.612 97.8397 186.623C97.8306 186.634 97.8257 186.647 97.8257 186.661C97.8257 186.675 97.8306 186.689 97.8397 186.7C97.8487 186.711 97.8612 186.718 97.8751 186.72C97.889 186.718 97.9015 186.711 97.9106 186.7C97.9196 186.689 97.9246 186.675 97.9246 186.661C97.9246 186.647 97.9196 186.634 97.9106 186.623C97.9015 186.612 97.889 186.605 97.8751 186.602Z" fill="#3C5F42"/>
<path opacity="0.82" d="M116.992 149.769C116.783 148.226 116.276 147.001 115.565 146.602C114.654 146.089 113.749 146.992 112.948 147.861C110.836 150.135 108.987 153.501 107.405 157.329C105.566 161.775 104.049 166.816 102.639 171.955C102.054 174.071 101.469 176.245 100.904 178.47C102.089 178.514 103.275 178.573 104.461 178.646C106.103 178.622 107.745 178.6 109.387 178.577C109.647 177.964 109.901 177.342 110.149 176.713C111.846 172.466 113.418 167.938 114.917 163.341C116.095 159.714 117.63 154.482 116.992 149.769Z" fill="#9BAF46"/>
<path opacity="0.73" d="M87.9863 178.347C91.6915 178.334 95.3967 178.347 99.1019 178.431C100.541 174.266 101.442 169.701 102.222 165.428C105.871 145.644 109.603 125.872 113.55 106.172C115.128 98.2899 117.77 89.6743 115.966 81.6769C115.397 79.1418 114.19 76.8017 112.152 76.3532C110.317 75.9378 108.427 77.1196 106.969 78.6933C104.87 80.9574 103.564 84.3193 102.288 87.4258C100.701 91.2753 99.3047 95.2536 98.0722 99.3215C95.5586 107.598 93.704 116.186 92.2531 124.846C90.578 134.821 89.3572 144.969 88.6416 155.092C88.1014 162.698 87.8225 170.449 88.4212 177.987C88.3262 178.01 88.2378 178.055 88.1625 178.117C88.0872 178.18 88.027 178.258 87.9863 178.347Z" fill="#9BAF46"/>
<path opacity="0.73" d="M78.0723 178.174C78.9694 178.191 79.8645 178.224 80.7576 178.265C81.4167 178.297 82.0778 178.334 82.737 178.373H84.6032C84.8216 176.737 85.0751 175.104 85.3033 173.466C85.7947 169.927 85.9215 166.399 85.9273 162.828C85.9332 159.258 85.9117 155.724 85.861 152.173C85.8259 149.716 85.7401 147.272 85.9 144.831C85.9 142.638 85.9117 140.445 85.9351 138.253C85.8259 135.49 85.7401 132.723 85.6992 129.952C85.4769 115.757 85.9137 101.56 86.7756 87.4044C87.2124 80.2462 87.7559 73.0958 88.4059 65.9532C89.0455 58.8763 89.847 51.8306 90.1083 44.7147C90.3945 37.7827 90.199 30.8393 89.5233 23.9344C89.065 19.4726 88.909 14.5993 87.3782 10.4436C86.2725 7.42875 83.478 4.20328 80.6582 6.28794C78.2322 8.08788 77.1987 12.224 76.4167 15.3325C73.433 27.1813 72.85 39.3188 72.4892 51.6336C72.2825 58.6131 71.8105 65.5535 71.4946 72.5231C71.1709 79.7385 71.0851 86.9539 71.1787 94.1693C71.2723 101.468 71.4634 108.795 71.9783 116.061C72.4794 123.099 73.3141 130.09 74.0941 137.087C74.8742 144.084 75.4826 151.095 75.937 158.148C76.3543 164.63 76.8184 171.107 77.9339 177.474C77.9794 177.702 78.0255 177.936 78.0723 178.174Z" fill="#9BAF46"/>
<path opacity="0.73" d="M49.0722 110.211C50.8019 117.982 52.4634 125.782 54.1815 133.55C55.4042 139.082 56.6932 144.591 58.0095 150.098C59.0431 152.781 59.7646 155.558 60.6753 158.289C61.6109 161.014 62.3531 163.801 62.8965 166.631C63.6253 170.711 64.63 174.737 65.9035 178.681C67.5104 178.644 69.1173 178.613 70.7242 178.587C70.8002 178.57 70.8763 178.554 70.9543 178.542C71.9293 178.398 72.9044 178.301 73.8794 178.24C73.856 176.111 73.5109 173.965 73.2359 171.873C72.7269 168.018 72.5865 164.104 72.1809 160.231C71.7909 156.455 71.317 152.688 70.8295 148.92C69.7745 140.798 68.7136 132.67 68.0018 124.486C67.3095 116.521 66.8084 108.54 66.2701 100.56C65.1937 84.602 63.893 68.6327 62.0735 52.751C60.4569 38.6479 57.639 24.8041 55.1916 10.8531C54.5968 7.46579 53.733 2.42283 50.6537 0.568286C47.3113 -1.44617 44.975 2.32338 43.8284 5.18613C42.2176 9.18773 41.3732 13.5345 40.5132 17.7799C39.0194 25.2468 38.5261 32.8581 38.4968 40.4869C38.4364 56.2144 40.6517 71.7704 43.8498 87.0826C45.4704 94.8225 47.3581 102.494 49.0722 110.211Z" fill="#9BAF46"/>
<path opacity="0.73" d="M40.5619 156.904C43.1751 161.572 46.108 165.974 49.0624 170.399C51.0125 173.324 52.9763 176.268 55.2384 178.919C55.9404 178.919 56.6405 178.903 57.3406 178.889C59.7958 178.839 62.249 178.776 64.7042 178.718C64.6749 178.493 64.6457 178.273 64.6184 178.063C64.2479 175.172 63.579 172.343 62.8789 169.531C60.0025 158.025 55.5992 147.241 51.4104 136.262C47.1689 125.147 42.9274 113.996 39.1442 102.683C37.2897 97.1372 35.4663 91.5677 33.3758 86.1289C31.453 81.1133 29.2806 76.2107 27.0653 71.3355C24.9046 66.5675 22.5801 61.8599 19.7095 57.5404C17.2524 53.8469 14.3838 49.8726 10.4543 47.9323C7.12745 46.2903 3.04394 46.8071 1.3454 50.7014C-0.232229 54.3228 0.415205 59.1883 0.775973 63.03C1.80368 73.9856 5.34506 84.5357 9.63138 94.4636C14.3116 105.312 19.2161 116.071 24.6043 126.535C27.2447 131.666 30.0314 136.703 32.6621 141.849C35.2401 146.896 37.7986 151.964 40.5619 156.904Z" fill="#9BAF46"/>
<path opacity="0.73" d="M29.4696 178.893H30.4018C30.736 178.816 31.0835 178.816 31.4178 178.893C34.0036 178.893 36.5894 178.921 39.1753 178.913C37.0848 174.48 35.747 169.874 33.9899 165.369C30.1307 155.477 25 145.151 16.9909 136.834C14.3407 134.082 10.6687 130.72 6.61443 129.96C2.1448 129.123 0.894781 132.885 1.2029 136.005C1.60657 140.065 3.31681 144.308 5.22596 148.172C7.56608 152.914 10.6531 157.429 14.0443 161.754C18.1727 167.019 22.7535 172.09 27.5293 176.965C28.1669 177.61 28.8163 178.254 29.4696 178.893Z" fill="#9BAF46"/>
<path opacity="0.85" d="M87.0602 178.349C89.4978 178.338 91.938 178.341 94.3808 178.359C95.4007 174.831 96.1691 171.167 96.8399 167.54C98.0236 161.116 98.909 154.648 99.8333 148.168C100.331 144.708 101.518 140.022 100.188 136.744C99.2678 134.47 97.3333 134.404 95.8532 135.825C94.0084 137.592 92.7213 140.482 91.6234 143.07C90.3323 146.158 89.2024 149.311 88.238 152.516C87.1343 156.124 86.4303 159.845 85.6619 163.593C84.8039 167.784 83.5578 176.721 83.5266 176.959C83.4661 177.411 83.4037 177.885 83.3433 178.371L87.0602 178.349Z" fill="#61722D"/>
<path opacity="0.85" d="M59.0117 135.338C60.3417 144.084 62.0519 152.661 64.5695 161.148C65.7844 165.243 67.1046 169.313 68.2864 173.421C68.7798 175.141 69.2712 176.912 69.9167 178.609L70.724 178.595C70.802 178.578 70.88 178.562 70.958 178.55C72.865 178.281 74.7889 178.151 76.7147 178.16C77.0462 176.746 77.1047 175.223 77.1438 174.137C77.2549 170.317 76.8668 166.434 76.6406 162.62C76.3884 158.46 76.0803 154.303 75.7163 150.149C75.024 142.366 74.3961 134.577 73.3547 126.83C72.5513 120.862 71.4417 114.916 70.2696 109.008C69.4896 105.09 68.4463 99.4775 64.6943 97.2251C61.2231 95.1366 58.4423 97.8394 57.2079 101.001C55.8116 104.581 55.3982 108.703 55.5093 112.526C55.7297 120.199 57.8612 127.777 59.0117 135.338Z" fill="#61722D"/>
<path opacity="0.85" d="M31.8336 147.624C32.091 152.409 34.7451 156.775 36.9838 160.869C39.3356 165.174 41.5373 169.574 44.0841 173.774C45.0748 175.411 46.1454 177.212 47.3622 178.903C47.9512 178.919 48.5401 178.943 49.129 178.975C51.7285 178.932 54.3299 178.942 56.9294 178.895C56.5745 176.945 55.9056 175.019 55.1646 173.117C54.8604 171.631 54.5269 170.149 54.1369 168.675C52.6886 163.164 50.6405 157.828 48.0292 152.764C45.8197 148.509 43.4854 143.15 39.3668 140.387C37.5435 139.166 35.1838 138.942 33.4736 140.484C32.9395 140.963 32.5463 141.579 32.3367 142.265C31.4787 143.583 31.465 145.443 31.818 147.212C31.8219 147.351 31.8258 147.489 31.8336 147.624Z" fill="#61722D"/>
<path d="M124.316 183.849C124.316 182.575 124.316 181.154 123.79 179.972C123.599 179.532 123.299 179.148 122.919 178.856C122.539 178.563 122.091 178.372 121.617 178.301C120.506 178.156 114.328 178.187 112.349 178C108.485 177.637 104.318 178.145 100.428 178.014C92.4543 177.745 84.4901 177.745 76.535 178.014C73.4148 178.121 70.5384 178.014 67.428 178.127C64.9377 178.211 62.4377 178.111 59.9454 178.076C55.5226 178.014 51.1466 178.193 46.7316 178.258C42.4413 178.322 38.1843 178.031 33.9077 178.384C31.6475 178.579 29.4459 178.579 27.174 178.698C26.7372 178.722 26.3199 178.685 25.8616 178.698C18.5097 178.435 18.8412 181.526 18.8256 182.556C18.7944 183.921 18.8802 185.286 18.8588 186.666C18.8295 188.443 18.535 190.389 19.3502 191.869C19.5706 192.269 20.6509 192.876 21.1345 192.876C21.6611 192.876 24.7617 192.901 26.3862 192.876C26.55 192.876 29.4595 193.229 30.3546 193.172C30.8363 193.141 41.6379 192.587 46.5404 192.148C46.8837 192.148 47.2249 192.166 47.5681 192.177C55.9243 192.429 64.1947 192.203 72.545 192.053C80.9812 191.901 89.4212 192.004 97.8515 192.177C102.397 192.273 106.929 192.456 111.473 192.618C115.281 192.751 115.662 191.826 120.65 191.826C120.931 191.826 122.487 191.826 123.275 191.563C123.833 191.368 123.969 190.84 124.055 190.514C124.279 189.165 124.217 188.174 124.238 187.152C124.266 186.052 124.31 184.95 124.316 183.849Z" fill="#A85662"/>
<path d="M79.798 208.006C80.4356 207.981 81.0733 207.956 81.7149 207.936C88.8152 207.72 95.9156 207.546 103.02 207.505C106.668 207.488 110.327 207.761 113.983 207.934H120.834C120.848 206.671 120.834 205.436 120.908 204.174C120.984 202.694 121.119 201.191 121.169 199.711C121.23 198.336 121.217 196.959 121.13 195.586C114.477 195.614 107.815 195.366 101.161 195.366C88.4603 195.366 75.7476 195.204 63.0505 195.432C50.1506 195.666 37.2643 196.407 24.3605 196.429C23.9367 196.441 23.5222 196.303 23.1904 196.039C23.2801 198.119 23.557 200.192 23.8086 202.261C24.0465 204.225 24.2708 206.187 24.5145 208.149C30.9083 208.149 37.3027 208.141 43.6977 208.125C55.7298 208.093 67.7632 208.053 79.798 208.006Z" fill="#C68781"/>
<path d="M37.473 226.969C39.9398 227.051 42.4067 227.164 44.8833 227.24C47.9411 227.264 50.9969 227.268 54.0488 227.275C58.8968 227.131 63.7389 226.778 68.5829 226.548C75.5038 226.218 82.4287 225.99 89.3574 225.984C96.2861 225.978 103.273 226.025 110.223 225.984C113.131 225.967 116.029 225.659 118.925 225.468C119.537 222.189 119.962 218.898 120.343 215.581C114.254 215.666 108.168 215.887 102.082 216.037C88.8445 216.368 75.6052 216.086 62.3699 216.587C55.7805 216.836 49.2106 216.834 42.6193 216.702C39.7429 216.643 36.8665 216.647 33.9901 216.597C33.0657 216.581 32.1511 216.534 31.2463 216.431C30.047 216.431 28.8477 216.413 27.6523 216.351C26.9931 216.316 26.3398 216.259 25.7021 216.168C25.7021 216.185 25.7021 216.203 25.7021 216.22C26.3262 219.602 27.0672 222.999 27.9272 226.378L28.8048 226.423C31.7065 226.579 34.5888 226.798 37.473 226.969Z" fill="#C68781"/>
<path d="M63.0504 195.424C75.7475 195.196 88.4602 195.358 101.161 195.358C107.815 195.358 114.477 195.606 121.13 195.578C121.038 194.306 120.874 193.04 120.641 191.786C114.985 191.786 109.33 191.563 103.675 191.563H84.4976C71.7342 191.563 59 191.684 46.2425 192.129C38.9511 192.382 31.6577 192.618 24.3604 192.626C23.9658 192.617 23.5789 192.737 23.2586 192.967C23.1785 193.824 23.1472 194.685 23.165 195.545C23.165 195.705 23.1786 195.863 23.1845 196.023C23.5162 196.287 23.9307 196.425 24.3545 196.413C37.2642 196.409 50.1505 195.658 63.0504 195.424Z" fill="#826C68"/>
<path d="M31.2464 216.431C32.1512 216.534 33.0658 216.581 33.9902 216.597C36.8666 216.647 39.743 216.643 42.6194 216.702C49.2107 216.835 55.7806 216.837 62.37 216.587C75.6053 216.086 88.8446 216.368 102.082 216.037C108.168 215.887 114.254 215.666 120.343 215.581L120.518 214.021C120.594 213.346 120.684 212.675 120.781 212.004C120.795 210.639 120.82 209.274 120.834 207.923H113.983C110.327 207.749 106.669 207.476 103.02 207.494C95.9157 207.529 88.8153 207.708 81.715 207.925C81.0734 207.944 80.4357 207.969 79.7981 207.995C67.762 208.031 55.7267 208.066 43.6919 208.098C37.2982 208.112 30.9038 208.12 24.5088 208.122C24.8423 210.805 25.2089 213.484 25.7003 216.156C26.3399 216.248 26.9932 216.304 27.6504 216.339C28.8478 216.413 30.0471 216.431 31.2464 216.431Z" fill="#9B7C83"/>
<path d="M118.925 225.468C116.029 225.663 113.131 225.967 110.223 225.984C103.267 226.025 96.3076 225.984 89.3574 225.984C82.4072 225.984 75.5117 226.218 68.583 226.548C63.7389 226.778 58.8968 227.133 54.0489 227.275C50.995 227.275 47.9392 227.264 44.8834 227.24C42.4146 227.16 39.9477 227.045 37.473 226.969C34.5888 226.797 31.7066 226.579 28.8126 226.423L27.9351 226.378C28.799 229.736 29.8013 233.077 30.9792 236.365L31.4004 236.421C47.2099 238.406 63.2611 237.88 79.0901 236.382C82.9032 236.021 86.7157 235.716 90.5275 235.468C97.6648 235.347 104.794 235.177 111.908 235.064C113.494 235.041 115.083 235.025 116.671 235C117.355 232.605 117.942 230.175 118.467 227.763C118.632 226.992 118.781 226.234 118.925 225.468Z" fill="#9B7C83"/>
<path d="M111.908 235.064C104.794 235.177 97.6725 235.347 90.5273 235.468C86.7142 235.728 82.9017 236.033 79.0899 236.382C63.261 237.88 47.2097 238.407 31.4002 236.421L30.979 236.365C31.0551 236.581 31.135 236.798 31.215 237.014C31.7428 238.461 32.3057 239.897 32.9038 241.322C35.8289 248.801 42.2447 247.757 47.6485 247.847C50.8096 247.898 53.9512 247.751 57.1065 247.751C61.5917 247.751 66.1861 247.506 70.6285 247.556C78.0583 247.627 85.4765 247.718 92.9006 247.406C96.6194 247.25 100.334 247.016 104.057 246.903C105.951 246.85 107.846 246.884 109.712 246.657C109.925 246.591 110.136 246.523 110.346 246.451C110.82 246.143 111.321 245.866 111.791 245.558C113.291 244.036 114.182 242.307 114.933 240.292C115.582 238.561 116.15 236.782 116.663 235C115.083 235.025 113.494 235.041 111.908 235.064Z" fill="#C68781"/>
<path d="M156.486 217.792C156.026 217.16 155.497 216.582 154.908 216.068C154.738 215.928 154.613 215.85 154.58 215.887C154.598 216.456 154.578 217.026 154.52 217.593C154.382 218.453 154.13 219.29 153.771 220.083L153.876 220.126C154.087 220.224 154.294 220.308 154.5 220.382C155.552 220.796 156.717 220.817 157.782 220.442C157.418 219.527 156.985 218.641 156.486 217.792Z" fill="#EF9152"/>
<path d="M158.738 226C158.72 225.924 158.716 225.846 158.724 225.768C158.724 225.723 158.724 225.676 158.736 225.63C157.435 225.969 155.928 225.801 154.58 225.265C154.023 225.051 153.512 224.732 153.075 224.325C152.649 223.921 152.316 223.429 152.1 222.884C151.112 224.31 150.003 225.649 148.785 226.885C148.785 226.928 148.796 226.973 148.798 227.02C148.8 227.067 148.808 227.153 148.812 227.215C149.101 227.765 149.381 228.317 149.691 228.849L149.779 228.937C151.788 230.979 155.08 232.129 157.58 232.728C157.658 232.39 157.728 232.052 157.79 231.714C158.381 229.865 158.7 227.94 158.738 226Z" fill="#EF9152"/>
<path d="M131.803 236.989C132.306 234.904 133.558 232.81 134.847 231.049C133.688 230.845 132.55 230.535 131.448 230.123C131.35 230.399 131.16 230.634 130.91 230.788C130.046 231.326 129.545 231.595 128.788 232.299C127.078 233.942 125.726 235.919 124.814 238.108C124.494 238.856 124.224 239.625 124.006 240.409C123.08 243.765 123.492 247.311 124.66 250.55C126.471 250.624 128.277 250.597 130.046 250.503C130.766 250.464 131.484 250.412 132.201 250.347C130.424 246.585 130.641 242.428 131.508 238.288C131.601 237.855 131.699 237.422 131.803 236.989Z" fill="#EF9152"/>
<path d="M104.336 220.241C101.996 220.854 99.8974 222.669 98.6143 224.849C97.7016 226.429 97.1539 228.192 97.0111 230.011C96.8684 231.829 97.1343 233.656 97.7894 235.359C98.1234 236.186 98.5639 236.967 99.0998 237.681C99.1827 236.243 99.4448 234.821 99.8799 233.447C100.491 231.439 101.342 229.511 102.415 227.706C103.612 225.682 105.058 223.816 106.719 222.151C107.564 221.263 108.522 220.492 109.57 219.857C109.765 219.886 109.96 219.92 110.134 219.961C108.544 219.596 106.323 219.723 104.336 220.241Z" fill="#EF9152"/>
<path d="M120.15 224.023C119.951 224.179 119.715 224.279 119.465 224.313C115.499 224.83 112.745 227.353 110.575 230.043C110.149 230.569 109.746 231.104 109.362 231.63C107.876 233.658 106.826 236.004 106.643 238.481C106.507 240.406 106.228 242.521 106.61 244.452C107.249 244.904 107.914 245.318 108.603 245.69C110.201 246.841 111.939 247.785 113.775 248.498C114.414 248.746 115.066 248.965 115.725 249.161C115.017 247.034 114.91 244.629 115.179 242.377C115.211 239.807 115.785 237.272 116.864 234.939C117.059 234.514 117.271 234.097 117.501 233.687C118.831 231.32 121.095 227.837 123.902 226.209C122.653 225.476 121.411 224.733 120.15 224.023Z" fill="#EF9152"/>
<path d="M152.973 240.296C150.996 239.352 148.519 238.211 147.154 236.437C146.337 235.336 145.79 234.058 145.557 232.706C145.363 231.649 145.265 230.577 145.263 229.502C143.707 230.335 142.017 230.889 140.271 231.14C140.413 231.285 140.5 231.475 140.518 231.677C140.59 233.059 140.505 234.313 140.485 235.69C140.449 237.248 140.57 238.805 140.846 240.339C141.517 244.023 143.683 244.855 144.046 247.502C144.046 247.521 144.046 247.539 144.046 247.558C144.645 247.303 145.239 247.028 145.824 246.73C148.876 245.169 151.638 243.137 153.761 240.55L153.65 240.46C153.413 240.482 153.175 240.424 152.973 240.296Z" fill="#EF9152"/>
<path d="M120.138 224.015C119.818 223.835 119.498 223.658 119.176 223.482L118.954 223.362C118.694 223.222 118.434 223.085 118.174 222.95L117.872 222.796C117.624 222.667 117.376 222.544 117.125 222.422L116.827 222.275C116.483 222.11 116.138 221.949 115.789 221.792C114.59 221.303 113.366 220.875 112.123 220.51C111.858 220.43 111.598 220.352 111.357 220.284C111.115 220.216 110.885 220.15 110.68 220.089C110.475 220.029 110.29 219.99 110.136 219.955C109.982 219.92 109.767 219.881 109.572 219.851C108.525 220.486 107.566 221.257 106.721 222.145C105.061 223.81 103.615 225.676 102.417 227.7C101.345 229.505 100.493 231.433 99.8821 233.442C99.447 234.815 99.1849 236.237 99.1021 237.675C99.4054 238.083 99.7309 238.473 100.077 238.845L100.112 238.882C100.452 239.249 100.81 239.602 101.181 239.943L101.234 239.992C101.409 240.154 101.586 240.312 101.766 240.47L101.791 240.491C101.986 240.657 102.181 240.821 102.376 240.983L102.431 241.029L102.936 241.447L103.063 241.55L103.599 241.985C103.706 242.071 103.812 242.157 103.915 242.244C104.227 242.51 104.531 242.781 104.837 243.05L105.143 243.315C105.348 243.49 105.555 243.664 105.767 243.828C105.873 243.91 105.98 243.99 106.089 244.068L106.222 244.165L106.612 244.446C106.222 242.515 106.509 240.4 106.645 238.475C106.821 235.998 107.878 233.652 109.363 231.624C109.754 231.098 110.144 230.563 110.576 230.037C112.747 227.348 115.5 224.824 119.467 224.307C119.717 224.273 119.953 224.173 120.151 224.017L120.138 224.015Z" fill="#D1623F"/>
<path d="M130.795 229.869L130.691 229.826C130.473 229.734 130.257 229.638 130.042 229.539C129.753 229.409 129.466 229.272 129.18 229.128L128.897 228.986L128.328 228.697L127.998 228.525C127.825 228.434 127.653 228.344 127.482 228.25L127.138 228.055L126.639 227.781L126.294 227.585C126.128 227.494 125.964 227.4 125.801 227.305L125.459 227.11L124.966 226.823C124.609 226.616 124.25 226.406 123.893 226.195C121.087 227.829 118.823 231.306 117.493 233.674C117.263 234.083 117.052 234.501 116.855 234.926C115.777 237.259 115.203 239.793 115.171 242.363C114.901 244.618 115.009 247.022 115.718 249.152C116.064 249.255 116.413 249.347 116.762 249.442L117.062 249.514C117.316 249.577 117.569 249.639 117.825 249.696L118.172 249.768C118.415 249.821 118.657 249.869 118.903 249.916L119.25 249.977C119.5 250.021 119.749 250.062 120.001 250.101L120.323 250.148C120.588 250.187 120.853 250.222 121.118 250.255L121.399 250.289C121.686 250.322 121.972 250.353 122.261 250.378L122.479 250.4C122.797 250.427 123.115 250.452 123.433 250.474H123.564C123.926 250.497 124.289 250.517 124.652 250.53C123.482 247.289 123.072 243.744 123.999 240.39C124.216 239.606 124.486 238.837 124.806 238.089C125.718 235.9 127.071 233.922 128.78 232.279C129.537 231.575 130.038 231.304 130.902 230.768C131.152 230.614 131.342 230.38 131.44 230.103C131.232 230.043 131.017 229.957 130.795 229.869Z" fill="#D1623F"/>
<path d="M144.056 247.502C143.693 244.856 141.52 244.023 140.855 240.339C140.579 238.805 140.458 237.248 140.495 235.69C140.514 234.313 140.6 233.059 140.528 231.677C140.51 231.475 140.422 231.285 140.28 231.14C139.836 231.207 139.387 231.252 138.938 231.281H138.915C138.706 231.293 138.498 231.302 138.289 231.306H138.205C137.991 231.306 137.774 231.306 137.56 231.306C137.113 231.298 136.666 231.273 136.22 231.23H136.16C135.965 231.211 135.77 231.187 135.575 231.162L135.487 231.15C135.274 231.121 135.062 231.088 134.851 231.051C133.56 232.806 132.316 234.906 131.807 236.991C131.702 237.424 131.603 237.857 131.512 238.291C130.639 242.432 130.428 246.589 132.205 250.351C132.567 250.318 132.928 250.281 133.291 250.242L133.406 250.228C133.743 250.189 134.081 250.148 134.418 250.103L134.498 250.092C134.851 250.043 135.204 249.992 135.557 249.936H135.582C135.945 249.877 136.306 249.813 136.667 249.741H136.686L137.006 249.68C137.242 249.635 137.478 249.585 137.714 249.534L137.952 249.485C138.164 249.438 138.379 249.388 138.591 249.337L138.892 249.265C139.087 249.216 139.297 249.163 139.5 249.109L139.824 249.023L140.409 248.855L140.74 248.756C140.935 248.697 141.13 248.635 141.325 248.572L141.653 248.463C141.848 248.399 142.043 248.333 142.238 248.268L142.55 248.153C142.745 248.081 142.94 248.007 143.135 247.931L143.402 247.824C143.613 247.738 143.823 247.654 144.032 247.564C144.056 247.539 144.056 247.521 144.056 247.502Z" fill="#D1623F"/>
<path d="M149.771 228.943L149.684 228.855C149.374 228.323 149.099 227.771 148.804 227.221C148.804 227.155 148.792 227.088 148.79 227.026C148.788 226.963 148.79 226.934 148.777 226.891C148.631 227.036 148.482 227.178 148.33 227.316L148.2 227.435C148.088 227.535 147.979 227.63 147.866 227.728L147.708 227.86C147.597 227.952 147.486 228.044 147.373 228.131L147.224 228.248C147.063 228.371 146.901 228.492 146.735 228.607C146.519 228.757 146.3 228.9 146.078 229.036L145.943 229.12C145.719 229.255 145.493 229.385 145.265 229.51C145.267 230.585 145.365 231.657 145.559 232.714C145.792 234.066 146.339 235.344 147.156 236.445C148.521 238.219 150.998 239.37 152.975 240.304C153.178 240.433 153.417 240.49 153.656 240.468L153.767 240.559C154.905 239.18 155.838 237.643 156.536 235.996C156.536 235.977 156.554 235.955 156.564 235.936C156.671 235.678 156.774 235.415 156.87 235.156L156.917 235.029C157.01 234.762 157.102 234.493 157.186 234.218C157.258 233.978 157.326 233.736 157.381 233.494C157.381 233.475 157.39 233.455 157.394 233.436C157.455 233.204 157.511 232.97 157.564 232.738C155.074 232.133 151.78 230.985 149.771 228.943Z" fill="#D1623F"/>
<path d="M158.682 223.892C158.601 223.142 158.449 222.401 158.229 221.679C158.165 221.484 158.097 221.271 158.034 221.068L158.017 221.02C157.947 220.825 157.874 220.63 157.798 220.434C156.732 220.811 155.566 220.79 154.514 220.376C154.308 220.302 154.101 220.218 153.89 220.121L153.785 220.078C153.536 220.64 153.246 221.183 152.917 221.702C152.812 221.87 152.703 222.034 152.592 222.193C152.434 222.422 152.272 222.65 152.11 222.878C152.326 223.423 152.659 223.915 153.085 224.319C153.522 224.726 154.033 225.045 154.59 225.259C155.938 225.795 157.445 225.963 158.746 225.624V225.565C158.742 225.006 158.725 224.444 158.682 223.892Z" fill="#D1623F"/>
</svg>
