<svg width="296" height="547" viewBox="0 0 296 547" fill="none" xmlns="http://www.w3.org/2000/svg">
<path opacity="0.63" d="M295.002 531.894C295.002 531.894 284.793 546.575 183.035 546.991C88.829 547.374 74.0884 531.648 74.0884 531.648C74.0884 531.648 87.9582 517.145 183.035 516.797C284.868 516.428 295.002 531.894 295.002 531.894Z" fill="#A3A5B2"/>
<path d="M104.41 378.327C105.482 378.691 106.542 379.177 107.482 379.598C108.458 380.035 109.584 380.962 110.562 381.146C110.438 380.621 110.307 380.098 110.17 379.572C109.546 377.192 108.895 374.821 108.143 372.476C107.365 369.97 106.42 367.52 105.314 365.141C104.858 364.188 104.338 362.964 103.98 362.006C102.556 358.194 100.112 355.183 97.8988 351.761C92.7067 343.73 85.9924 336.888 79.082 330.329C72.9607 324.522 66.1833 319.191 57.9679 316.781C50.2637 314.524 42.2116 316.232 35.8966 321.133C30.1978 325.552 25.1107 331.74 22.0687 338.292C19.2532 344.344 18.3334 351.513 23.0866 356.837C29.1893 363.681 37.0942 368.946 45.4171 372.721C52.8878 376.103 61.1943 378.584 69.4634 378.301C76.0563 378.068 82.5885 376.918 89.1791 376.598C93.0172 376.412 97.628 376.26 101.611 377.439C102.578 377.615 103.519 377.913 104.41 378.327V378.327Z" fill="#5A7F3D"/>
<path opacity="0.96" d="M110.169 379.581C109.922 378.638 109.668 377.695 109.408 376.755C107.826 373.964 106.031 371.299 104.039 368.785C103.875 366.4 101.471 364.195 100.649 361.957C99.6963 359.373 99.4651 356.561 98.7928 353.898C98.6854 353.464 98.5593 353.031 98.4496 352.599C98.2651 352.326 98.0831 352.05 97.9033 351.77C97.4107 351.009 96.8994 350.259 96.3788 349.516C97.0997 351.499 97.687 353.528 98.1367 355.589C98.6784 358.047 98.9375 360.595 99.9204 362.936C100.286 363.775 100.712 364.586 101.195 365.363C100.425 364.475 99.6465 363.605 98.8605 362.751C96.0234 359.703 92.8729 356.963 89.4614 354.576C88.4995 351.931 86.6062 349.67 85.8754 346.867C85.091 343.879 84.6031 340.906 83.5011 337.991C82.6921 335.82 81.7002 333.722 80.5362 331.719L79.0911 330.336C78.4903 329.769 77.8841 329.207 77.2724 328.649C78.0796 329.603 78.8191 330.613 79.4856 331.67C80.9848 334.168 82.2083 336.821 83.1346 339.584C84.1221 342.462 84.4116 345.51 85.3782 348.385C86.1229 350.595 86.312 351.34 87.1525 353.008C85.9073 352.205 84.6443 351.438 83.3634 350.71C78.1899 347.792 72.6826 345.452 67.0819 343.468C62.4757 340.228 62.0999 333.536 60.2999 328.617C58.6003 323.987 56.2354 319.315 52.6611 315.853C52.3342 315.832 52.0097 315.818 51.6829 315.811C55.7171 320.2 58.1357 325.886 59.6042 331.625C60.6454 335.704 60.9909 339.539 63.6944 342.298C58.8174 340.637 53.8891 338.969 48.9117 337.603C47.9429 336.774 47.3359 334.566 46.8106 333.723C45.5397 331.705 44.1635 329.756 42.6877 327.883C40.7195 325.331 38.3548 323.112 35.6839 321.31L35.4364 321.511C38.8006 324.349 41.6861 327.451 44.0744 331.214C45.2978 333.137 46.1499 335.059 47.0487 337.112L46.304 336.925C46.1779 336.888 46.0472 336.858 45.9141 336.832C45.3001 336.68 44.6838 336.526 44.0674 336.388C39.5873 335.372 35.4411 334.466 31.3742 332.235C30.0575 331.513 28.54 330.85 27.0505 330.109C26.9408 330.254 26.8334 330.401 26.726 330.548L27.2373 330.845C29.5462 332.191 31.7781 333.688 34.1804 334.851L33.1112 334.919C30.1205 335.082 27.347 334.412 24.4731 333.854L24.3564 334.043C26.719 334.762 29.0256 335.615 31.5353 335.645C32.9547 335.664 34.3695 335.475 35.7913 335.564H35.831C36.0878 335.666 36.3446 335.774 36.6084 335.865C38.2949 336.435 40.0092 336.92 41.7445 337.318C39.4426 338.072 37.1617 339.376 35.8053 340.121C31.0544 342.742 25.4934 346.76 19.8997 345.342C19.8857 345.435 19.874 345.529 19.8623 345.622C23.656 346.652 27.891 345.344 31.3158 343.538C34.2644 341.983 36.9469 340.007 40.1406 338.932C41.1002 338.607 42.6527 338.047 44.0838 337.871C45.3234 338.166 46.5584 338.465 47.7794 338.806C51.5335 339.871 55.2221 341.17 58.9365 342.368C60.6299 342.915 62.3271 343.471 64.0283 344.038C63.5699 344.134 63.119 344.262 62.6789 344.421C60.2018 344.851 57.7388 345.72 55.5303 346.669C51.809 348.266 48.6082 350.815 44.9499 352.529C41.1422 354.316 36.7111 354.907 32.5298 354.914C28.1711 354.914 23.7961 353.889 20.2195 351.319C20.1967 351.304 20.1695 351.298 20.1425 351.301C20.1775 351.436 20.2148 351.574 20.2522 351.709C26.1937 356.734 35.3384 357.014 42.5336 354.837C45.9514 353.802 48.9281 351.8 51.97 349.988C50.7491 350.831 49.5561 351.719 48.3678 352.623C45.3888 354.889 42.4169 357.593 39.1274 359.397C37.2457 360.422 35.1586 360.728 33.0575 361.069C31.3952 361.338 29.7166 361.569 28.0357 361.749C28.1805 361.873 28.3276 361.983 28.47 362.118C31.4466 362.092 34.5119 361.81 37.3414 361.076C40.2994 360.305 42.9188 358.343 45.4028 356.524L45.2721 356.671C43.5702 358.589 41.8682 360.523 39.9399 362.221C38.953 363.106 37.895 363.909 36.7765 364.62C35.7959 365.232 34.6753 365.554 33.6901 366.131L34.1967 366.475C35.9524 366.405 37.8667 365.094 39.1531 364.139C41.1889 362.616 42.9562 360.745 44.6557 358.864C46.3553 356.984 48.0082 355.019 49.8782 353.288C51.796 351.856 53.7972 350.54 55.8712 349.345C57.6234 348.402 59.4459 347.595 61.3225 346.932C63.2368 346.232 66.1597 345.297 68.3636 345.561C73.8032 347.516 79.1611 349.743 84.1572 352.569C81.9183 352.511 79.6491 353.672 77.5549 354.611C74.2234 356.103 71.485 358.568 69.1504 361.338C68.6111 361.98 68.0905 362.632 67.5768 363.291C65.0601 365.678 62.4921 367.986 59.268 369.567C54.9772 371.675 50.2596 372.766 45.4799 372.758C46.0915 373.036 46.7102 373.302 47.3312 373.566C51.3204 373.367 55.2404 372.445 58.9015 370.847C60.774 370.035 62.5519 369.02 64.2033 367.82C61.8687 370.997 59.5201 374.104 56.5225 376.722C56.8517 376.806 57.1785 376.89 57.5101 376.97C61.8034 373.812 64.8547 368.829 68.0157 364.69C69.9584 362.867 71.7538 360.893 73.3853 358.787C74.1351 358.139 74.9301 357.545 75.7643 357.01C77.2847 356.05 78.936 355.316 80.6669 354.83C82.4459 354.326 84.7478 353.403 86.5828 354.003C89.6221 355.88 92.47 358.05 95.0854 360.483C96.5469 361.854 98.0013 363.312 99.4044 364.846C96.5912 364.419 92.9726 367.262 90.9999 368.757C88.5952 370.574 86.9657 372.298 85.0303 374.209C83.8736 375.406 82.5606 376.44 81.1269 377.285L82.7868 377.11C83.0366 376.951 83.2864 376.785 83.5315 376.605C85.8427 374.905 87.7338 372.697 90.0684 371.048C92.9469 369.025 97.8846 365.818 101.529 367.295C103.127 369.217 104.578 371.256 105.871 373.396C102.983 372.032 98.8325 374.737 96.2994 376.556C96.7897 376.589 97.2776 376.631 97.7655 376.687C98.5383 376.302 99.2784 375.83 100.056 375.412C100.971 374.921 101.923 374.442 102.962 374.244C104.307 373.994 105.358 374.508 106.614 374.837C106.644 374.842 106.675 374.842 106.705 374.837C107.711 376.664 108.544 378.58 109.193 380.562C109.611 380.824 110.068 381.018 110.547 381.135C110.428 380.621 110.307 380.098 110.169 379.581Z" fill="#454910"/>
<path d="M103.016 323.324C101.914 321.19 100.763 319.088 99.5611 317.017C97.2802 313.644 95.011 310.266 92.6017 307.003C86.8445 299.196 80.0812 291.219 70.8899 287.479C61.8993 283.826 51.1228 284.443 41.7074 285.844C36.8047 286.573 31.9418 287.507 27.0578 288.299C22.6547 289.016 18.1676 289.29 13.8136 290.252C9.68134 291.163 5.46973 292.877 2.76392 296.281C-0.123976 299.925 -0.684279 304.419 0.781849 308.771C2.2223 313.048 5.02849 316.97 7.78565 320.492C10.4634 323.922 13.2486 327.325 16.5848 330.135C23.843 336.262 33.0203 339.918 42.3798 341.217C50.3454 342.324 58.841 342.011 66.5195 339.486C73.0401 337.339 79.3435 334.58 86.0134 332.882C90.3324 331.789 96.1689 330.628 100.5 332.665C102.154 333.279 103.672 334.209 104.97 335.405C105.526 335.905 106.084 336.825 106.815 336.783C106.404 332.177 104.76 327.659 103.016 323.324Z" fill="#899E3C"/>
<path d="M106.815 336.767C106.775 336.299 106.717 335.832 106.651 335.379C106.374 334.249 106.161 333.099 105.734 332.008C104.94 329.981 103.682 328.222 102.36 326.512C99.7036 323.081 96.4562 320.205 93.1061 317.481C92.2353 314.849 92.9473 312.013 94.4018 309.486C94.2383 309.252 94.0726 309.018 93.9068 308.799C91.9224 310.553 91.2127 313.704 91.822 316.419C87.6431 312.873 83.7677 308.881 79.2269 305.851C78.3607 303.464 76.932 301.443 76.7475 298.764C76.596 296.259 77.0051 293.751 77.9452 291.424L77.5156 291.119C75.3234 295.496 75.2697 300.911 77.9825 305.05C76.7078 304.266 75.3747 303.582 73.995 303.004C72.7536 302.487 71.4866 302.034 70.199 301.646C68.6955 300.558 66.7718 299.894 65.1376 299.098C62.9407 298.028 60.7555 296.909 58.9439 295.239C56.9991 293.445 55.3392 291.296 53.6607 289.261C52.4934 287.86 51.158 286.484 50.2475 284.891L49.6732 284.931C50.1821 286.332 51.0926 287.538 52.0405 288.841C53.712 291.149 55.3743 293.464 57.3026 295.566C59.0022 297.418 61.066 298.836 63.2956 299.974L63.8279 300.252C55.2599 299.04 46.5098 300.231 37.7737 301.544C35.4612 301.124 33.2242 300.362 31.1365 299.282C30.5206 298.812 29.9371 298.3 29.3902 297.75C28.3412 296.633 27.5331 295.311 27.0159 293.868C26.4579 292.268 25.97 290.231 26.1871 288.416L25.7202 288.488C25.3467 290.233 25.7879 292.31 26.2128 293.882C26.5439 295.057 27.0324 296.182 27.6649 297.227C27.4548 297.084 27.2494 296.94 27.0439 296.792C24.4385 294.924 21.7234 292.298 21.0253 289.084L20.2082 289.187C20.3459 292.371 22.7763 295.202 25.2649 297.201C27.8919 299.33 30.8695 300.984 34.064 302.09C28.984 302.847 23.9202 303.534 18.9078 303.702C14.3017 303.854 9.74453 303.552 5.36715 301.997C3.76296 301.428 2.21602 300.71 0.74698 299.85C0.589587 300.29 0.457084 300.738 0.350098 301.193C0.553208 301.315 0.756318 301.427 0.952424 301.541C3.88778 303.171 7.07999 304.288 10.3912 304.842C17.981 306.101 25.7996 305.076 33.408 303.929C32.6049 304.426 31.9722 304.877 31.8415 304.987C28.8182 307.503 26.1964 310.506 23.4603 313.321C19.3958 317.502 15.1561 321.198 9.98966 323.228L10.3072 323.611C14.1336 322.282 17.5724 319.995 20.7895 317.236C23.4393 314.966 25.8556 312.445 28.3653 310.028C29.7676 308.628 31.2419 307.302 32.7824 306.057C34.2298 304.931 35.6562 304.545 37.2461 303.781C37.3343 303.734 37.4108 303.667 37.4702 303.586C37.5295 303.506 37.5702 303.413 37.5893 303.314C45.5596 302.146 53.8638 300.978 61.9392 301.896C59.196 302.623 56.4855 304.398 54.9494 306.204C52.0381 309.621 50.5743 314.337 48.8561 318.421C46.5985 323.781 44.2289 328.832 40.3511 333.239C38.4109 335.485 36.2507 337.531 33.903 339.345C34.2975 339.467 34.6967 339.579 35.0936 339.691C36.5387 338.481 37.8484 337.108 38.9737 336.005C42.5155 332.508 45.4519 328.447 47.6631 323.987C49.902 319.532 51.6833 314.83 54.0809 310.457C55.3229 308.192 56.8544 306.316 59.161 305.085C60.3581 304.445 61.6426 303.985 62.9734 303.718C64.2341 303.461 67.3157 302.936 67.3834 302.833C71.1837 303.679 74.7937 305.224 78.0292 307.39C80.7327 309.177 83.1653 311.34 85.535 313.541C84.6455 314.008 83.8097 314.819 83.2144 315.337C81.3724 316.949 80.023 318.825 78.8557 320.983C77.1397 324.153 76.437 327.72 74.8332 330.948C73.5899 333.406 72.1861 335.779 70.6309 338.051L71.3663 337.785C72.5949 336.172 73.7231 334.484 74.7444 332.733C76.4277 329.799 77.4666 326.678 78.8837 323.623C79.9973 321.233 81.4074 318.874 83.3638 317.082C84.1365 316.381 84.9653 315.62 85.8992 315.127C86.2063 314.96 86.5369 314.842 86.8797 314.774L87.6268 315.475C90.58 318.203 93.7504 320.686 96.6126 323.506C96.0891 323.612 95.577 323.768 95.0835 323.973C93.5123 324.62 92.2586 325.786 91.3061 327.178C90.2996 328.671 89.6114 330.356 89.2843 332.128C89.7512 332.034 90.2485 331.948 90.7411 331.873C90.9103 330.611 91.3243 329.395 91.9598 328.292C92.6639 327.048 93.672 326.003 94.8897 325.255C95.7115 324.769 96.6897 324.697 97.5792 324.475C97.8126 324.709 98.0461 324.959 98.2795 325.209C99.9604 327.052 101.623 329.051 102.848 331.235C103.465 332.335 103.794 333.487 104.095 334.653C104.406 334.888 104.7 335.132 104.975 335.386C105.526 335.9 106.084 336.809 106.815 336.767Z" fill="#7C712F"/>
<path d="M109.245 247.045C109.831 247.481 110.37 247.976 110.854 248.523L111.05 248.446C111.074 248.434 111.099 248.425 111.125 248.418C111.059 247.818 110.991 247.22 110.935 246.62C110.956 246.471 110.943 246.319 110.898 246.176C109.679 232.835 110.648 219.43 110.779 206.045C110.905 192.994 109.908 180.065 106.126 167.582C103.009 157.42 98.1385 147.882 91.7357 139.399C88.3093 134.871 84.5984 130.566 80.6253 126.51C76.0565 121.803 71.3897 117.208 66.3563 113.072C62.9221 110.25 59.9501 105.316 55.1268 105.305C51.3285 105.305 48.8024 109.012 46.9698 112.079C42.7675 119.129 40.3652 127.577 38.2594 135.562C35.0423 147.746 30.9007 160.518 32.9855 173.333C34.0081 179.64 36.4431 185.195 40.0664 190.28C43.4655 195.048 47.488 199.276 51.3798 203.576C55.1735 207.767 58.4933 212.413 62.4061 216.477C66.0782 220.278 70.2005 223.616 74.6815 226.416C83.7864 232.125 94.3224 235.171 102.795 242.006C104.364 243.268 105.963 244.485 107.529 245.744C108.155 246.068 108.715 246.638 109.245 247.045Z" fill="#899E3C"/>
<path d="M110.854 248.523L111.05 248.446C111.066 248.438 111.083 248.431 111.101 248.428C110.751 246.262 109.796 244.139 108.925 242.158C108.171 240.444 107.487 238.752 106.824 236.996C105.89 234.503 104.49 232.247 103.115 230.021C101.434 227.306 99.8461 224.534 98.3263 221.726C98.0928 219.93 98.6064 217.566 98.8726 216.295C99.65 212.558 101.065 209.084 102.692 205.657C104.132 202.621 105.862 199.757 107.263 196.701C108.276 194.489 109.726 191.747 110.165 189.145C110.114 188.575 110.053 188.007 109.995 187.44C109.556 188.977 109.262 190.684 108.68 192.088C107.947 193.861 106.346 196.452 105.463 198.147C103.757 201.446 101.838 204.623 100.507 208.126C99.2835 211.345 97.3271 215.106 96.7714 218.521C96.7714 218.598 96.7528 218.675 96.7434 218.755C94.2104 213.936 91.8104 209.035 89.3754 204.158C88.8618 200.187 89.5085 196.449 90.6758 192.548C91.9131 188.414 93.3909 184.445 95.4174 180.673C97.3177 177.136 99.6033 173.852 101.518 170.332C102.314 168.867 102.988 167.33 103.824 165.893C104.171 165.281 104.561 164.694 104.992 164.137C104.819 163.646 104.642 163.157 104.462 162.67C104.06 163.124 103.7 163.613 103.385 164.132C102.353 165.678 101.59 167.402 100.736 169.058C98.6508 173.111 95.9917 176.811 93.8929 180.864C91.8431 184.835 90.3186 189.084 89.149 193.431C88.4486 196.022 87.8883 198.904 88.1077 201.649L87.7319 200.885C84.8159 195.134 81.6852 189.514 78.6923 183.814C78.1133 179.934 78.2744 176.04 78.718 172.081C79.3436 166.475 79.8573 160.869 80.9335 155.356C81.9327 150.231 82.9599 145.143 84.3537 140.121C84.921 138.073 85.521 135.284 86.7303 133.181C86.5575 132.98 86.3871 132.78 86.212 132.579C85.1848 134.394 84.5288 136.996 84.1693 138.136C83.4969 140.273 82.9646 142.455 82.3343 144.609C81.4004 147.806 80.2962 150.946 79.5327 154.202C78.132 160.18 77.588 166.272 76.911 172.373C76.6542 174.69 76.4044 177.267 76.5841 179.743C75.2091 177.026 73.8854 174.282 72.648 171.485C70.9251 167.594 69.4333 163.585 68.0932 159.512C67.7644 156.268 67.7331 153.001 67.9998 149.752C68.3173 145.225 68.6722 140.698 69.0154 136.171C69.3305 132.027 70.0403 127.996 70.6356 123.887C70.9157 121.948 71.2029 119.82 71.8799 117.907C71.6465 117.701 71.4317 117.5 71.2099 117.297C70.6262 118.869 70.3484 120.624 70.087 122.221C69.4263 126.274 68.6862 130.318 68.3103 134.415C67.8434 139.512 67.4745 144.644 67.1267 149.752C66.9742 151.843 66.9337 153.941 67.0053 156.036C65.301 150.479 63.8349 144.823 62.4225 139.217C60.9353 133.326 59.768 127.412 58.6007 121.448C57.5338 115.912 56.1891 110.558 53.9782 105.422C53.7738 105.461 53.5719 105.513 53.3736 105.576C56.7867 115.104 58.2762 125.517 60.0949 135.475C60.3984 137.143 60.7096 138.809 61.0287 140.474C59.3863 137.456 57.4249 134.624 55.1782 132.025C52.8226 129.259 49.9954 127.026 47.1729 124.835C45.6764 123.667 44.0912 122.621 42.5223 121.549C42.471 121.686 42.4173 121.822 42.3659 121.957C43.4095 122.761 44.4484 123.567 45.4406 124.433C48.2958 126.923 51.3028 129.236 53.7774 132.177C54.2187 132.702 54.6296 133.249 55.0265 133.812C54.0513 133.217 53.0374 132.688 51.9915 132.228C49.8296 131.259 47.6024 130.425 45.3892 129.598C43.8064 129.002 42.1208 128.239 40.4399 127.729C40.4072 127.839 40.3722 127.949 40.3395 128.059C41.5301 128.491 42.6741 129.058 43.8694 129.523C46.0896 130.378 48.3682 131.728 50.523 132.756C52.6242 133.756 54.8327 134.954 56.7494 136.494C57.7182 138.145 58.5961 139.86 59.5019 141.577C60.4153 143.263 61.2147 145.009 61.8948 146.802C62.1196 147.462 62.3903 148.105 62.7049 148.727C64.1057 155.132 65.789 161.462 68.0138 167.648C69.0691 170.584 70.2574 173.45 71.5297 176.269C69.8614 174.732 68.0814 173.32 66.2045 172.046C64.4676 170.838 62.6917 169.719 60.877 168.692C60.017 167.974 59.1184 167.304 58.1852 166.685C56.4524 165.454 54.7979 164.116 53.2311 162.679C50.4997 160.268 47.7495 157.846 44.9246 155.559C42.2721 153.453 39.4849 151.521 36.5808 149.778C36.0041 149.423 35.4252 149.026 34.8345 148.629C34.7738 148.881 34.7131 149.136 34.6547 149.39C35.3668 149.874 36.0695 150.357 36.7746 150.778C39.9443 152.666 42.9288 154.85 45.6881 157.3C48.7487 160.007 51.5969 163.081 54.7603 165.655C50.6327 163.919 46.3161 162.803 41.9364 162.062C40.141 161.763 38.3291 161.575 36.5107 161.497C35.2454 161.439 33.8983 161.394 32.6703 161.014C32.654 161.179 32.64 161.343 32.626 161.509C34.6221 162.382 36.9076 162.396 39.0648 162.749C43.4422 163.469 47.7682 164.384 51.9261 166.054C56.014 167.69 59.803 169.96 63.5991 172.221C67.3952 174.482 70.9041 176.825 73.5538 180.563C76.1709 185.935 79.0401 191.2 81.8603 196.475C82.1965 197.098 82.5319 197.729 82.8666 198.369C81.3421 197.367 79.6985 196.585 78.0666 195.8C73.4768 193.616 68.9033 191.45 64.115 189.787C59.105 188.047 53.9829 187.187 48.8024 186.262C44.2963 185.427 39.8836 184.148 35.6283 182.445C35.6656 182.534 35.7053 182.623 35.745 182.712C39.38 184.375 43.085 185.856 46.9884 186.659C52.0242 187.699 57.1416 188.376 62.0349 190.079C66.7531 191.714 71.2146 194.095 75.8091 196.082C77.6954 196.898 79.6145 197.65 81.4354 198.622C82.3104 199.111 83.1361 199.683 83.9008 200.331C85.3786 203.153 86.84 205.989 88.3132 208.815C87.7389 208.479 87.1809 208.168 86.6789 207.881C82.507 205.557 78.2114 203.483 73.5889 202.415C68.6465 201.275 63.4193 201.378 58.3836 201.165C55.1712 201.03 51.8701 201.079 48.667 200.602L48.8071 200.759C50.9082 201.095 53.0677 201.226 55.2086 201.408C60.291 201.84 65.5975 202.343 70.5982 203.413C75.2488 204.403 79.5958 206.3 83.7187 208.771C85.493 209.834 87.2929 210.89 89.0135 212.041C89.5985 212.438 90.1598 212.868 90.6945 213.331C92.8189 217.302 95.0088 221.252 97.3551 225.083C98.5947 227.106 99.9231 229.054 101.198 231.03C99.4118 229.598 96.8882 228.787 94.9901 227.993C91.3388 226.48 87.6712 225.017 83.9475 223.719C80.2611 222.434 76.5328 221.296 72.8068 220.147C70.9554 219.577 69.0971 218.907 67.2878 218.192C65.7329 217.577 64.2761 216.755 62.6186 216.447C62.6018 216.444 62.5846 216.445 62.5682 216.449C62.5517 216.454 62.5363 216.461 62.523 216.472C62.5096 216.482 62.4985 216.496 62.4905 216.511C62.4824 216.526 62.4776 216.542 62.4762 216.559L62.6302 216.713C64.1898 217.115 65.6652 217.984 67.1384 218.626C68.6115 219.269 70.1733 219.897 71.6885 220.467C75.3445 221.836 79.0682 223.001 82.7592 224.258C86.2844 225.459 89.7163 226.951 93.1294 228.463L94.8057 229.208C93.5536 228.932 92.287 228.727 91.012 228.594C87.8789 228.264 84.7272 228.173 81.5965 227.823C79.6845 227.608 77.7748 227.37 75.8628 227.134L76.6308 227.584C80.5997 228.372 84.5171 229.234 88.5746 229.575C91.5536 229.825 94.5629 230.149 97.3854 231.252C98.6994 231.749 99.9772 232.338 101.21 233.013C102.143 233.546 102.827 234.382 103.665 235.01C104.528 236.488 105.302 238.015 105.984 239.584C106.855 241.616 107.809 243.627 108.566 245.713C108.69 246.057 108.818 246.414 108.942 246.79C109.04 246.874 109.138 246.952 109.236 247.024C109.826 247.466 110.368 247.969 110.854 248.523V248.523Z" fill="#7C712F"/>
<path d="M228.809 384.69C228.385 382.834 227.743 381.034 226.897 379.329C225.2 375.867 221.959 373.58 218.609 371.878C214.477 369.775 209.829 368.472 205.358 367.306C200.378 365.981 195.296 365.076 190.165 364.601C180.044 363.709 169.723 364.793 160.282 368.652C151.676 372.155 144.056 377.68 137.575 384.302C131.662 390.347 126.757 397.175 122.097 404.197C121.051 406.262 119.86 408.238 118.878 410.343C118.315 411.548 117.745 412.749 117.183 413.954C119.232 414.08 121.287 413.903 123.346 414.017C126.066 414.164 128.692 414.788 131.307 415.521C134.256 416.348 137.227 417.119 140.218 417.813C143.669 418.224 147.141 418.443 150.616 418.469C156.32 418.537 162.028 418.353 167.727 418.598C171.336 418.752 174.929 419.156 178.538 419.345C185.82 419.731 193.176 419.679 200.425 418.827C207.149 418.033 214.451 416.185 219.898 411.969C226.066 407.192 228.034 398.271 228.853 390.917C229.078 388.834 229.26 386.748 228.809 384.69Z" fill="#3C5B28"/>
<path opacity="0.47" d="M224.541 402.24C220.507 402.557 216.041 401.436 212.224 400.158C208.545 398.925 205.129 397.07 201.861 394.994C199.823 393.699 197.425 392.368 195.408 390.759C194.616 389.961 193.81 389.177 192.992 388.406C192.943 388.343 192.887 388.283 192.838 388.219C192.827 388.203 192.812 388.189 192.794 388.18C192.777 388.171 192.757 388.166 192.737 388.166C191.453 386.967 190.132 385.802 188.726 384.706C186.765 383.176 184.207 380.941 181.753 380.084C190.585 379.511 199.132 382.137 207.821 383.253C211.659 385.486 215.042 388.486 219.149 390.261C222.181 391.538 225.34 392.488 228.573 393.097C228.62 392.76 228.664 392.426 228.706 392.095C225.331 391.51 222.038 390.517 218.901 389.14C215.38 387.554 212.364 385.12 208.944 383.393C213.514 383.875 218.126 383.762 222.667 383.057C224.441 382.784 226.255 382.468 228.062 382.076C227.885 381.572 227.691 381.075 227.481 380.586C225.996 380.873 224.499 381.121 222.97 381.287C218.827 381.776 214.647 381.878 210.485 381.593C213.452 381.303 216.321 380.362 219.24 379.584C221.579 378.97 223.969 378.569 226.381 378.385C226.236 378.152 226.085 377.918 225.914 377.685C224.066 377.912 222.233 378.252 220.426 378.703C216.639 379.637 212.894 381.02 208.998 381.452C204.06 380.936 199.216 379.894 194.339 379.084C197.803 378.434 201.221 377.234 204.494 376.15C207.889 375.026 211.169 374.006 214.731 373.669C216.543 373.499 218.401 373.237 220.222 373.27C220.559 373.28 220.894 373.313 221.226 373.368C220.722 373.043 220.206 372.737 219.683 372.447C218.723 372.345 217.757 372.322 216.793 372.38C213.221 372.613 209.789 373.081 206.355 374.153C205.925 374.288 205.492 374.428 205.055 374.573C206.939 373.573 208.967 372.835 210.87 371.873C212.155 371.2 213.501 370.653 214.89 370.238C214.657 370.142 214.405 370.051 214.159 369.96C213.146 370.33 212.158 370.766 211.202 371.266C208.911 372.433 206.504 373.368 204.377 374.8C200.14 376.227 195.632 377.942 191.136 378.598C188.161 378.161 185.156 377.958 182.15 377.991C179.222 378.059 176.305 378.378 173.432 378.946C176.986 376.243 180.142 373.073 183.553 370.172C185.61 368.425 187.755 366.767 190.171 365.55C190.664 365.302 191.203 365.024 191.771 364.76C191.355 364.716 190.94 364.674 190.522 364.636C188.761 365.468 187.095 366.486 185.551 367.673C180.957 371.177 176.969 375.421 172.536 379.119C167.111 380.294 161.846 382.118 156.857 384.552H156.84L157.074 384.234C158.17 382.585 159.108 380.835 159.875 379.009C160.678 377.841 161.743 376.963 162.661 375.902C163.919 374.466 164.783 372.716 165.871 371.156C166.959 369.595 168.161 367.909 169.625 366.652C170.197 366.176 170.81 365.75 171.457 365.381C170.909 365.484 170.36 365.596 169.823 365.713C168.039 366.977 166.492 368.546 165.252 370.347C164.085 371.983 163.151 373.793 161.864 375.351C161.608 375.659 161.33 375.963 161.057 376.271C162.327 373.13 163.459 369.401 165.672 366.76C164.918 366.979 164.166 367.227 163.419 367.477C162.17 369.544 161.304 371.915 160.475 374.127C159.478 376.778 158.437 379.458 157.076 381.945C156.404 383.211 155.616 384.412 154.721 385.531C154.646 385.622 154.564 385.708 154.487 385.795C148.938 388.895 144.266 392.975 139.546 397.171C141.18 394.498 141.971 391.193 142.326 388.149C142.602 385.785 142.459 383.396 142.686 381.03C142.742 380.462 142.814 379.892 142.919 379.329C142.501 379.682 142.088 380.03 141.68 380.404C141.488 381.98 141.469 383.583 141.427 385.162C141.29 390.226 140.087 395.157 137.162 399.285L136.282 400.058C132.795 403.12 128.973 405.777 124.889 407.979C125.533 407.112 126.269 406.295 126.745 405.328C127.513 403.772 127.698 401.936 127.954 400.245C128.188 398.628 128.055 396.881 128.333 395.265C128.16 395.498 127.989 395.732 127.817 395.965C127.567 396.738 127.39 397.533 127.287 398.339C127.023 400.476 126.82 402.859 125.795 404.79C124.917 406.456 123.227 407.36 122.442 409.149C122.417 409.209 122.398 409.272 122.386 409.336C120.014 410.738 119.424 411.726 117.425 413.459L117.192 413.938C117.64 413.963 118.086 413.975 118.534 413.98C121.163 412.599 123.689 411.137 126.154 409.572C130.31 409.899 133.91 413.076 135.873 416.731C136.226 416.823 136.574 416.909 136.933 416.998C136.331 414.709 134.3 412.777 132.439 411.476C130.777 410.308 128.828 409.422 126.808 409.14C129.397 407.474 131.933 405.704 134.47 403.812C135.81 402.814 137.108 401.77 138.388 400.705C140.167 401.233 142.59 402.732 143.267 403.417C144.726 404.884 145.975 406.542 147.217 408.191C149.614 411.389 151.66 414.835 153.322 418.469H154.067C152.321 414.302 150.518 410.436 147.654 406.844C146.512 405.359 145.27 403.954 143.937 402.639C146.33 404.024 151.058 406.573 152.916 408.771C154.714 410.899 156.838 413.396 158.236 415.802C158.717 416.624 159.497 417.526 159.98 418.448H160.433C160.17 417.671 159.835 416.92 159.434 416.204C158.014 413.565 156.316 411.085 154.368 408.808C152.5 406.654 150.399 404.755 147.864 403.436C145.891 402.403 143.4 401.394 141.161 400.45C140.663 400.139 140.122 399.903 139.555 399.749C143.865 396.098 148.034 392.296 152.862 389.336C153.997 389.236 155.138 389.236 156.273 389.336C159.557 389.578 162.809 390.148 165.98 391.037C168.596 391.767 171.066 392.944 173.281 394.517C175.975 398.005 178.349 401.817 179.909 405.935C180.855 408.342 181.417 410.882 181.575 413.464C181.676 415.493 181.389 417.47 181.057 419.455L181.928 419.483C183.459 415.3 182.729 410.31 181.335 406.222C180.033 402.474 177.991 399.027 175.33 396.084C179.045 399.172 182.138 403.148 184.634 407.105C186.294 409.735 187.435 411.076 189.07 413.795C189.868 415.122 191.568 418.072 192.303 419.462L193.059 419.42C192.436 418.201 191.738 417.012 191.157 415.848C189.708 412.892 188.109 410.012 186.366 407.22C183.401 402.485 179.593 398.335 175.132 394.975C172.167 392.76 169.295 390.948 165.745 390.051C162.392 389.203 158.685 388.098 155.197 387.993C161.748 384.464 168.827 382.019 176.159 380.752C177.705 381.135 179.129 381.167 180.649 381.452C183.684 381.999 186.154 384.295 188.516 386.15C193.666 390.196 197.894 395.197 202.589 399.74C206.791 403.802 211.188 408.469 216.494 411.055C217.462 411.526 218.461 411.932 219.482 412.272C219.62 412.169 219.765 412.071 219.903 411.964C220.15 411.772 220.386 411.574 220.622 411.368C218.796 410.848 217.044 410.097 215.408 409.133C210.128 405.993 205.631 401.069 201.303 396.753C200.136 395.585 198.996 394.417 197.859 393.249C199.069 394.071 200.313 394.83 201.478 395.585C204.968 397.832 208.629 399.824 212.591 401.107C217.11 402.567 221.824 403.066 226.381 402.422C226.437 402.27 226.488 402.116 226.542 401.955C225.882 402.091 225.214 402.187 224.541 402.24V402.24Z" fill="#8F9648"/>
<path d="M225.153 223.796C221.322 220.546 215.719 220.394 210.982 220.838C205.379 221.357 199.902 222.707 194.381 223.751C189.478 224.686 184.484 224.898 179.547 225.59C174.13 226.334 168.766 227.426 163.489 228.86C153.152 231.703 143.017 236.244 135.175 243.709C131.309 247.374 128.205 251.768 126.042 256.638C123.526 262.385 121.046 268.146 118.602 273.924C113.578 285.732 108.724 298.119 108.05 311.065C107.93 313.209 107.963 315.36 108.148 317.5C108.209 317.53 108.263 317.573 108.306 317.626C108.631 317.303 108.934 316.959 109.212 316.596C109.651 315.94 110.041 315.253 110.466 314.59C111.163 313.429 112.035 312.385 113.053 311.492C113.373 311.227 113.713 310.987 114.071 310.775C115.334 309.607 116.872 308.785 118.586 308.813C119.074 308.689 119.569 308.593 120.068 308.526C124.77 307.879 129.572 308.67 134.283 308.815C148.718 309.259 162.896 306.299 176.073 300.453C187.326 295.466 197.806 288.624 206.579 279.958C214.89 271.749 221.929 261.649 225.774 250.567C227.373 245.961 228.681 241.191 228.97 236.297C229.246 231.829 228.821 226.912 225.153 223.796Z" fill="#3C5B28"/>
<path opacity="0.47" d="M224.46 223.256C222.326 224.225 220.197 225.204 218.028 226.099C212.948 228.201 207.571 229.369 202.402 231.238C200.833 231.803 199.279 232.422 197.733 233.067C198.277 232.476 198.826 231.845 199.409 231.184C201.569 228.741 202.766 226.332 208.428 221.336C208.519 221.256 208.612 221.182 208.703 221.102C208.379 221.144 208.057 221.193 207.732 221.24C205.696 222.709 203.64 224.265 201.952 226.038C198.917 229.213 196.26 233.046 192.522 235.351C190.626 236.22 188.747 237.113 186.877 238C181.86 240.336 176.99 242.977 172.295 245.907C166.461 249.654 160.857 253.747 155.514 258.166C157.414 253.854 159.623 245.912 161.67 241.815C164.752 235.636 169.12 230.719 174.233 226.449C173.364 226.605 172.497 226.769 171.63 226.942C167.107 230.842 163.331 235.533 160.487 240.785C158.117 245.176 156.842 249.997 154.629 254.44C153.098 257.51 151.338 259.483 149.493 263.265C148.292 264.312 147.099 265.363 145.917 266.419C141.387 270.474 136.875 274.608 132.665 279.014C133.62 276.402 133.655 274.424 134.197 270.838C134.897 266.22 135.075 261.495 135.546 256.858C136.037 252.02 136.52 247.047 138.74 242.646C139.379 241.394 140.106 240.188 140.914 239.037C139.737 239.869 138.594 240.748 137.486 241.675C135.607 245.468 134.855 249.572 134.395 253.782C133.856 258.736 133.679 263.716 133.228 268.678C132.78 273.553 131.251 278.077 129.402 282.567C127.511 284.709 125.699 286.921 124.004 289.229C120.698 293.723 117.638 298.479 114.568 303.139C112 307.047 109.315 311.331 108.061 315.928C108.089 316.458 108.124 316.989 108.171 317.519C108.232 317.549 108.286 317.592 108.33 317.645C108.414 317.566 108.502 317.472 108.593 317.376C111.57 308.199 117.645 300.838 123.119 293.032C125.164 291.773 128.022 291.189 129.89 290.771C135.22 289.563 140.688 289.076 146.148 289.322C152.495 289.621 158.722 290.997 165.007 291.836C170.855 292.616 176.596 292.663 182.427 291.726C185.661 291.233 188.849 290.48 191.962 289.474C194.042 288.773 196.092 288.014 198.174 287.348C198.587 287.026 198.999 286.7 199.412 286.37C197.352 286.804 195.324 287.376 193.342 288.082C190.257 289.147 187.096 289.979 183.887 290.57C176.883 291.838 170.112 291.684 163.109 290.623C156.777 289.666 150.476 288.369 144.051 288.287C138.852 288.217 132.1 288.07 127.072 289.392C126.47 289.555 125.882 289.765 125.314 290.021C130.954 282.588 137.727 276.176 144.691 269.965C151.284 264.083 158.066 258.435 165.27 253.347C165.308 253.363 165.349 253.369 165.389 253.366C165.43 253.363 165.469 253.35 165.504 253.328C170.157 250.404 175.722 250.684 180.947 251.497C186.478 252.354 192.046 253.693 197.448 255.136C200.621 255.984 203.577 257.157 206.593 258.439C209.07 259.493 212 259.778 214.708 259.913C217.225 260.039 219.417 260.147 221.805 259.731C221.975 259.406 222.151 259.082 222.316 258.755L222.167 258.794C219.004 259.472 214.815 259.028 211.617 258.355C208.764 257.757 206.133 256.468 203.401 255.496C200.246 254.411 197.031 253.506 193.774 252.784C188.712 251.616 179.612 249.551 174.424 249.086C173.501 248.989 172.571 248.978 171.646 249.056C180.767 243.279 190.482 238.694 200.448 234.552C206.051 232.217 211.911 230.687 217.47 228.22C220.234 226.993 222.921 225.599 225.613 224.221C225.463 224.076 225.316 223.933 225.146 223.796C224.929 223.604 224.695 223.427 224.46 223.256Z" fill="#8F9648"/>
<path d="M207.118 35.0105C207.118 29.6706 206.92 24.3121 206.168 19.0189C205.419 13.7795 204.347 8.00284 200.85 3.83559C197.446 -0.235884 192.289 -0.658682 187.151 0.698476C181.207 2.24251 175.643 5.44035 170.475 8.68025C159.579 15.5081 148.973 23.1231 139.228 31.5067C127.95 41.21 117.75 52.4597 110.433 65.487C102.468 79.7239 98.6425 95.9064 99.3884 112.205C99.7993 121.698 101.581 131.112 103.971 140.29C106.222 148.932 109.17 157.353 111.584 165.938C112.167 167.961 112.634 170.015 112.985 172.09C113.177 173.237 113.233 174.333 113.615 175.426C113.826 176.077 113.987 176.743 114.099 177.419C113.964 178.664 113.927 179.919 113.989 181.17C114.115 184.352 119.062 184.256 118.936 181.065C118.703 175.034 122.618 169.932 127.021 166.3C129.444 164.303 132.066 162.562 134.634 160.75C137.58 158.687 140.41 156.48 143.253 154.279C156.654 143.901 170.304 133.357 180.492 119.643C189.873 107.015 196.58 92.2891 201.063 77.2436C205.128 63.5366 207.168 49.3083 207.118 35.0105V35.0105Z" fill="#899E3C"/>
<path d="M124.873 427.995C124.786 427.792 124.7 427.589 124.616 427.386C124.315 426.654 124.027 425.919 123.75 425.181C123.164 423.62 122.627 422.053 122.115 420.481C121.055 417.175 120.14 413.847 119.314 410.511C116.568 399.472 114.659 388.334 113.267 377.203C110.253 353.113 109.509 328.962 110.055 304.919C110.632 279.434 113.038 254.104 114.801 228.706C115.674 216.122 116.552 203.534 118.049 191.007C118.791 184.795 120.061 178.626 120.661 172.401C121.252 166.269 122.083 160.161 123.215 154.092C123.238 153.964 122.963 153.912 122.919 154.034C121.818 156.943 120.788 159.867 119.827 162.805C117.834 168.921 116.251 175.003 115.259 181.294C114.266 187.584 113.47 193.952 112.793 200.306C111.43 213.128 110.543 226.001 109.485 238.848C107.354 264.683 104.639 290.422 104.179 316.386C103.798 337.953 104.52 359.626 107.165 381.231C108.703 393.788 110.709 406.412 114.168 418.839C115.016 421.875 115.926 424.968 117.08 428.012C119.678 428.014 122.288 428.252 124.873 427.995Z" fill="#564629"/>
<path opacity="0.4" d="M117.39 82.5648C125.314 86.8698 133.467 90.7404 141.654 94.5105C149.734 98.2363 157.763 102.254 166.088 105.389C172.652 107.866 179.435 109.723 186.345 110.934C192.735 100.453 197.575 88.9488 201.053 77.2436C205.119 63.5366 207.159 49.3083 207.109 35.0105C207.109 29.6706 206.911 24.3121 206.159 19.0189C205.41 13.7795 204.338 8.00283 200.841 3.83559C197.446 -0.235884 192.289 -0.658682 187.151 0.698476C181.207 2.24251 175.643 5.44035 170.475 8.68025C159.579 15.5081 148.975 23.1231 139.228 31.5067C127.95 41.21 117.75 52.4597 110.433 65.487C108.599 68.7603 106.979 72.149 105.582 75.6318C109.429 78.0868 113.38 80.3854 117.39 82.5648Z" fill="url(#paint0_linear)"/>
<path d="M201.307 28.1733C197.192 29.8948 192.936 31.2473 188.827 32.9829C182.598 35.6108 176.021 38.3555 170.425 42.2027C170.612 41.9014 170.799 41.5977 170.988 41.2964C174.688 35.3936 178.982 29.7547 182.194 23.5716C185.259 17.6804 188.089 11.7029 191.329 5.89815C192.399 3.98271 193.48 2.06961 194.68 0.23359C193.998 0.103389 193.307 0.0253001 192.613 0L191.794 1.31278C188.862 5.98458 185.794 10.612 183.389 15.5618C181.83 18.7619 180.354 22.0112 178.543 25.0782C176.675 28.2317 174.511 31.217 172.522 34.2934C171.387 36.0453 170.267 37.8058 169.162 39.5748C171.401 34.4685 171.793 28.0915 171.693 22.6816C171.604 17.9794 171.056 13.317 170.502 8.66619L170.474 8.68254C170.285 8.80167 170.099 8.91613 169.909 9.04227C170.143 12.6909 170.376 16.3396 170.432 19.9883C169.564 16.8792 167.911 14.0668 166.097 11.4226C165.754 11.6561 165.798 11.6818 165.455 11.9084C167.297 15.8654 168.868 18.9675 170.446 23.9733C170.446 26.2437 170.33 28.5125 170.096 30.7708C169.718 34.1415 168.777 37.2389 167.89 40.4905C167.815 40.7615 163.144 49.472 160.716 53.8051C157.036 60.369 153.635 67.066 150.605 73.9569C150.589 71.9708 150.376 69.9912 149.97 68.0471C149.59 66.1825 149.058 64.352 148.38 62.5741C148.02 58.8904 147.446 55.2791 146.36 51.6795C144.343 45.0291 141.941 38.2807 138.381 32.2518C137.96 32.6185 137.54 32.9806 137.125 33.352C138.037 35.1483 138.885 36.9796 139.618 38.8437C141.369 43.2982 142.849 47.9537 144.346 52.5087C144.925 54.27 145.473 56.0382 145.956 57.8229C145.709 57.4468 145.452 57.0777 145.179 56.718C142.377 53.0273 138.642 49.5211 134.498 47.4164C131.907 46.099 128.935 45.2954 126.353 43.8916L126.01 44.2653C127.814 45.4099 129.862 46.1924 131.846 47.0684C136.287 49.0125 140.101 52.1537 142.861 56.141C145.151 59.4884 146.615 63.5341 147.469 67.4818C147.553 67.882 147.631 68.2838 147.703 68.6871C147.787 70.3223 148.219 71.9878 148.291 73.6346C148.345 74.8189 148.088 76.0335 148.009 77.2505C147.967 77.8789 147.908 78.6077 147.752 79.5864C147.728 79.7196 143.837 89.9906 141.532 95.1879C139.42 99.9742 137.153 104.646 135.063 109.409C134.501 105.127 134.206 100.946 132.495 96.8137C131.432 94.3258 130.23 91.8996 128.895 89.5467C127.051 85.7275 126.701 84.9707 125.26 82.8147C122.989 78.3414 120.838 73.686 117.934 69.5935C116.167 67.1011 114.052 64.8516 112.24 62.3966C112.128 62.5811 112.007 62.761 111.902 62.9455C113.513 65.2697 115.387 67.4211 116.998 69.7687C119.12 72.8661 120.67 76.44 122.176 79.9532C121.361 79.2898 120.542 78.6638 119.723 78.0705C115.873 75.2534 111.86 72.7656 108.197 69.7313C108.075 69.9789 107.963 70.2265 107.837 70.4741C110.725 73.4337 114.397 75.6808 117.666 78.1475C120.154 80.0326 122.445 81.7822 124.133 84.1508C127.025 88.2059 128.316 92.4806 130.034 96.739C131.076 99.2722 131.747 101.942 132.028 104.667C132.08 105.202 132.124 105.735 132.164 106.269C131.477 105.155 130.835 104.008 130.154 102.927C127.684 99.0235 124.494 95.3491 121.224 92.0999C117.675 88.575 113.629 85.5874 109.063 83.5201C107.25 82.7162 105.357 82.1092 103.415 81.7098C103.217 82.3335 103.023 82.9618 102.839 83.5902C105.03 84.0168 107.157 84.7234 109.168 85.6925C114.166 88.1101 118.436 91.7121 122.144 95.8116C125.162 99.1496 127.747 102.724 130.242 106.449C130.644 107.045 131.463 108.468 132.432 109.652C132.528 110.691 132.649 111.728 132.829 112.766C132.897 113.146 132.712 115.08 132.423 115.842C129.764 122.822 127.478 129.934 125.186 137.04C125.141 137.178 125.099 137.318 125.055 137.458C125.104 130.502 119.566 124.06 115.091 119.306C111.987 115.962 108.545 112.949 104.818 110.318C103.101 109.144 101.254 108.173 99.3135 107.423C99.3135 108.151 99.3135 108.878 99.3135 109.605C100.407 109.983 101.469 110.445 102.491 110.988C106.427 113.184 109.88 116.262 113.018 119.47C118.387 124.957 124.133 131.651 124.011 139.771C124.011 139.847 124.034 139.921 124.075 139.984C124.117 140.048 124.175 140.098 124.245 140.128C122.26 147.043 120.895 154.127 118.677 160.965C117.182 165.571 113.398 172.511 116.613 177.131C116.643 177.186 116.683 177.234 116.731 177.273C116.779 177.312 116.835 177.341 116.894 177.358C116.954 177.376 117.016 177.381 117.078 177.374C117.14 177.368 117.199 177.349 117.254 177.319C117.308 177.29 117.356 177.249 117.395 177.201C117.434 177.153 117.463 177.097 117.48 177.038C117.498 176.978 117.503 176.916 117.497 176.854C117.49 176.792 117.471 176.733 117.442 176.678C115.088 171.869 118.586 165.751 120.066 161.163C121.434 156.921 122.4 152.567 123.493 148.248C124.373 146.811 125.607 145.625 127.077 144.802C130.455 143.347 134.652 143.905 138.119 144.772C141.67 145.657 146.248 146.753 148.422 149.988C148.463 150.051 148.522 150.101 148.59 150.133L149.131 149.708C148.837 147.662 146.694 146.557 144.997 145.753C142.806 144.749 140.508 143.997 138.147 143.511C136.202 143.06 134.212 142.829 132.215 142.824C134.277 142.343 136.366 141.979 138.469 141.735C142.261 141.236 146.071 140.801 149.886 140.567C153.387 140.334 156.84 140.462 160.31 140.631C160.871 140.149 161.429 139.666 161.981 139.18C157.66 138.605 153.142 138.872 148.849 139.22C144.922 139.537 140.984 139.983 137.087 140.572C132.729 141.229 127.184 142.401 124.112 145.872C124.562 144.19 125.045 142.52 125.596 140.866C127.884 133.985 130.266 127.117 132.848 120.343C133.509 118.615 134.199 116.902 134.916 115.204C138.448 114.833 141.857 113.705 145.394 113.408C149.379 113.072 153.441 113.308 157.431 113.408C161.395 113.5 165.337 114.033 169.183 114.996C172.951 115.923 176.641 117.139 180.221 118.633C180.275 118.657 180.317 118.566 180.263 118.54C176.799 116.811 173.568 115.101 169.872 113.868C166.183 112.624 162.377 111.763 158.512 111.299C154.515 110.843 150.495 110.635 146.472 110.675C143.598 110.694 140.869 111.427 138.11 112.013C140.937 110.353 144.833 109.932 147.878 109.336C153.481 108.236 159.016 106.804 164.736 106.456C170.38 106.113 176.043 106.269 181.659 106.923C183.831 107.176 185.992 107.505 188.145 107.891C188.388 107.462 188.628 107.035 188.866 106.608C186.273 106.141 183.665 105.737 181.043 105.44C175.044 104.758 168.992 104.672 162.976 105.186C157.478 105.683 152.117 107.092 146.72 108.173C143.409 108.837 139.373 109.402 136.536 111.457C138.248 107.613 140.052 103.817 141.885 100.012C145.387 92.7306 148.422 85.2557 151.623 77.8485C158.029 73.8775 165.415 72.5554 172.793 71.3664C173.535 71.4178 174.301 71.3804 175.015 71.4131C176.232 71.4692 177.446 71.5369 178.66 71.6257C181.449 71.8035 184.225 72.1624 186.968 72.7002C189.644 73.2562 192.296 74.0597 194.736 75.3047C196.886 76.4003 198.648 77.8626 200.371 79.4883C200.483 79.1333 200.591 78.7759 200.7 78.4208C197.462 74.917 192.541 72.9922 188.014 71.9831C185.288 71.3967 182.522 71.0203 179.738 70.8572C178.769 70.7941 177.796 70.7497 176.825 70.7147C178.706 70.4017 180.576 70.0677 182.428 69.6706C189.252 68.2013 196.669 66.2158 203.628 67.4071C203.724 66.9773 203.817 66.5428 203.911 66.1106C201.609 65.7532 199.155 65.856 197.122 66.0009C192.35 66.3372 187.678 67.3604 182.993 68.2667C177.873 69.2571 172.65 69.4463 167.526 70.369C162.401 71.2917 157.398 72.6488 152.832 75.0852C155.017 70.105 157.303 65.1693 159.878 60.3573C162.56 55.3468 165.404 50.4204 168.359 45.5641C168.491 45.4252 168.591 45.2605 168.656 45.0805C168.81 44.8259 168.966 44.5713 169.123 44.3167C170.057 43.2959 172.092 42.2775 172.655 41.9434C175.554 40.2125 178.596 38.7152 181.645 37.2716C188.136 34.1952 194.827 31.857 201.476 29.159C203.292 28.4209 205.115 27.6641 206.929 26.8862C206.908 26.4938 206.882 26.1013 206.857 25.7183C205.015 26.5709 203.175 27.3931 201.307 28.1733Z" fill="#7C712F"/>
<path d="M140.778 199.785C140.781 199.785 140.784 199.784 140.787 199.781C140.789 199.779 140.79 199.776 140.79 199.773C140.79 199.77 140.789 199.767 140.787 199.765C140.784 199.763 140.781 199.761 140.778 199.761C140.775 199.761 140.772 199.763 140.77 199.765C140.768 199.767 140.767 199.77 140.767 199.773C140.767 199.776 140.768 199.779 140.77 199.781C140.772 199.784 140.775 199.785 140.778 199.785Z" fill="#81894C"/>
<path d="M225.396 341.095C224.105 337.358 220.862 335.129 217.302 333.798C213.52 332.377 209.488 331.77 205.491 331.326C200.383 330.759 195.252 330.28 190.125 329.925C184.522 329.537 178.721 329.292 173.136 330.158C167.746 330.995 162.67 333.179 157.938 335.823C153.091 338.53 148.628 341.831 143.909 344.739C139.618 347.388 135.201 349.852 131.053 352.73C122.751 358.486 115.296 366.096 112.609 375.87C112.002 378.075 111.265 380.28 110.877 382.534C110.699 383.567 110.575 384.609 110.506 385.655C110.524 385.7 110.539 385.746 110.553 385.792L110.585 385.844L110.63 385.872H110.653L110.744 385.902L110.791 385.914C111.321 385.493 112.362 384.615 112.514 384.452C112.971 383.93 113.468 383.444 114.001 382.999C115.286 382.026 116.722 381.273 118.252 380.768C119.857 380.225 121.507 379.825 123.183 379.574C124.03 379.434 129.932 378.939 131.865 378.874C139.742 378.654 147.542 379.724 155.389 380.172C163.464 380.639 171.651 380.329 179.701 379.605C188.785 378.787 197.946 377.269 206.299 373.45C214.361 369.766 221.941 363.695 224.899 355.047C226.423 350.616 226.967 345.629 225.396 341.095Z" fill="#899E3C"/>
<path d="M225.455 350.936C222.814 350.135 220.113 349.119 217.788 347.615C216.732 346.933 215.469 345.886 214.113 344.989L216.809 345.094C219.244 345.188 221.682 345.286 224.119 345.351C224.836 345.37 225.555 345.351 226.272 345.318C226.222 344.739 226.144 344.163 226.038 343.59C225.763 343.564 225.487 343.541 225.212 343.522C222.781 343.356 220.332 343.34 217.897 343.242C213.151 343.05 208.4 342.847 203.656 342.856C198.564 342.882 193.48 343.299 188.451 344.104C189.042 343.805 189.618 343.489 190.2 343.169C193.267 341.481 195.849 339.198 198.534 336.984C201.056 334.9 203.656 332.779 206.656 331.46C206.269 331.413 205.879 331.366 205.489 331.324C205.099 331.282 204.749 331.245 204.38 331.205C202.653 332.221 201.006 333.369 199.454 334.636C196.442 337.021 193.653 339.602 190.396 341.665C188.372 342.945 186.233 343.891 184.092 344.87C181.968 345.287 179.859 345.76 177.766 346.288C170.528 348.107 163.191 350.156 156.187 352.866C156.522 352.529 156.852 352.192 157.177 351.854C160.044 348.895 162.392 345.533 164.82 342.223C168.745 339.187 173.18 336.834 177.537 334.489C180.306 332.999 183.355 331.537 186.03 329.684C185.347 329.652 184.662 329.626 183.976 329.607C183.555 329.88 183.131 330.151 182.699 330.408C180.57 331.686 178.382 332.863 176.204 334.052C172.702 335.963 169.3 337.939 166.188 340.392C168.57 337.285 171.201 334.354 174.299 331.938C175.472 331.043 176.739 330.279 178.078 329.661C176.678 329.733 175.277 329.857 173.895 330.046C170.437 332.17 167.678 335.143 165.198 338.329C162.518 341.77 160.16 345.459 157.28 348.743C155.477 350.798 153.525 352.793 151.602 354.762C144.131 358.082 137.295 362.494 130.59 367.143C129.159 368.138 127.73 369.138 126.313 370.156C128.232 367.028 129.558 363.583 130.611 360.007C131.471 357.084 132.012 353.985 133.574 351.331C133.674 351.158 133.786 350.995 133.896 350.829C133.25 351.241 132.61 351.663 131.975 352.093C131.137 353.898 130.621 355.83 130.086 357.762C128.755 362.571 127.028 367.129 124.572 371.424C122.917 372.644 121.287 373.893 119.695 375.197C116.426 377.881 113.048 380.824 110.613 384.328C110.565 384.767 110.525 385.206 110.494 385.645L110.508 385.68C110.598 385.767 110.703 385.835 110.819 385.881C111.36 385.451 112.352 384.615 112.502 384.454C112.959 383.932 113.457 383.446 113.989 383.001C114.405 382.674 114.844 382.377 115.301 382.111C116.898 380.526 118.576 379.025 120.327 377.612C123.465 375.115 126.785 372.849 130.133 370.642C131.215 369.927 132.299 369.215 133.385 368.507C135.339 368.404 137.296 368.651 139.163 369.236C142.665 370.296 145.359 372.548 148.21 374.753C150.878 376.818 153.642 378.621 156.88 379.626C157.604 379.859 158.342 380.093 159.087 380.327C160.129 380.358 161.173 380.377 162.217 380.385C159.975 379.882 157.777 379.201 155.643 378.348C151.842 376.76 149.358 373.349 146.171 370.873C143.526 368.825 139.782 367.07 136.133 366.718C140.968 363.634 145.905 360.703 151.074 358.255C151.427 358.089 151.775 357.928 152.134 357.766C157.548 357.766 163.135 359.236 168.11 361.037C173.26 362.905 177.819 366.024 182.51 368.792C187.139 371.527 192.081 374.291 197.474 375.099C198.721 375.279 199.977 375.394 201.235 375.445C202.491 375.015 203.732 374.54 204.957 374.022C201.952 373.938 198.959 373.658 195.959 372.868C190.506 371.434 185.724 368.196 180.992 365.253C176.472 362.45 171.852 359.906 166.767 358.273C163.899 357.309 160.949 356.606 157.954 356.171C157.324 356.087 156.717 356.045 156.119 356.024C162.493 353.403 169.153 351.294 175.704 349.329C179.229 348.271 182.811 347.346 186.429 346.605C189.548 346.426 192.908 347.509 195.677 348.565C199.669 350.086 203.178 352.368 206.752 354.664C211.589 357.766 216.665 359.932 222.088 360.689C222.347 360.294 222.597 359.894 222.835 359.486C220.718 359.272 218.627 358.847 216.595 358.217C212.231 356.853 208.503 354.358 204.665 351.952C200.715 349.479 195.45 346.524 190.323 345.879C194.039 345.258 197.791 344.882 201.555 344.755C204.898 344.653 208.251 344.727 211.594 344.844C212.452 345.262 213.265 345.766 214.022 346.346C215.691 347.568 217.23 348.843 219.09 349.782C221.195 350.832 223.404 351.658 225.681 352.247C225.777 351.84 225.863 351.431 225.938 351.018C225.784 351.025 225.616 350.985 225.455 350.936Z" fill="#7C712F"/>
<path d="M114.194 403.347C114.257 403.221 114.318 403.094 114.372 402.966C114.372 402.966 114.372 402.966 114.372 402.947C114.178 402.763 113.984 402.578 113.797 402.389C113.664 402.256 113.531 402.12 113.401 401.985C112.98 401.604 112.553 401.233 112.159 400.85C111.666 400.382 111.15 399.915 110.622 399.479H110.606C109.063 398.385 107.429 397.4 105.981 396.183C105.454 395.739 104.903 395.356 104.436 394.905C103.797 394.337 103.128 393.805 102.433 393.309C99.2693 390.854 95.8234 389.03 91.927 388.084C87.339 386.995 82.6848 386.206 77.9941 385.725C73.8058 385.272 69.6806 385.092 65.5296 385.944C58.0589 387.477 51.4847 391.576 45.7066 396.428C42.779 398.888 40.0101 401.536 37.302 404.232C34.7526 406.767 32.3433 409.63 29.5371 411.882C25.1014 415.444 18.1723 418.135 16.4634 424.106C14.514 430.901 21.338 436.253 26.78 438.558C41.9315 444.975 58.5422 436.096 71.058 427.864C77.3614 423.723 83.4103 419.327 89.2912 414.608C93.9604 410.871 99.5518 406.778 105.321 404.538C107.485 403.699 109.798 403.51 112.065 403.37C112.774 403.313 113.485 403.306 114.194 403.347Z" fill="#3C5B28"/>
<path opacity="0.47" d="M114.297 403.127C112.502 402.555 110.604 401.471 109.205 400.633C107.907 399.855 105.61 398.474 103.387 397.715C101.452 397.054 99.5937 396.211 97.7354 395.379C96.5602 392.856 95.0295 390.514 93.1899 388.425C92.772 388.301 92.3518 388.192 91.9222 388.077L91.2989 387.932C92.8654 389.873 93.6918 392.137 95.0996 394.223C93.7388 393.635 92.3423 393.133 90.9183 392.721C86.8293 391.573 82.5889 391.058 78.3442 391.193C75.2438 387.946 71.2423 386.211 66.7552 385.725H66.7272C66.3257 385.788 65.9265 385.858 65.5249 385.94C65.0066 386.047 64.493 386.173 63.9841 386.297C64.6027 386.297 65.2284 386.297 65.8658 386.358C68.2634 386.545 71.1956 387.867 73.3225 389.037C74.4898 389.673 75.51 390.502 76.5606 391.296C73.2119 391.547 69.9102 392.233 66.7389 393.338C64.9174 393.982 63.1448 394.757 61.4347 395.657C58.5655 395.374 55.2363 397.105 52.8901 398.042C49.6917 399.324 45.7719 400.091 42.1906 399.53C41.9781 399.724 41.7634 399.915 41.5532 400.112C44.4458 400.878 47.5485 400.579 50.5508 399.85C52.6916 399.331 54.6854 398.418 56.7538 397.678C57.5584 397.377 58.3782 397.119 59.2098 396.904C54.7367 399.574 50.6932 402.978 46.9648 406.624C45.8349 407.731 44.726 408.862 43.624 409.997C40.8645 411.677 37.972 413.083 34.7222 413.632C32.2942 414.043 29.5277 414.22 26.9783 413.714L26.6725 413.917C29.0071 414.498 31.5308 414.489 33.8257 414.239C36.751 413.924 39.4288 412.961 41.9968 411.698C38.7027 415.115 35.4016 418.519 31.6615 421.464C27.0834 425.05 21.9076 427.799 16.3442 428.402C16.413 428.692 16.4972 428.978 16.5964 429.259C27.4009 428.255 36.2957 419.574 44.0489 412.078C44.8271 411.331 45.6053 410.589 46.3835 409.852C45.9026 411.116 45.4987 412.373 45.1088 413.454C43.6124 417.612 42.2676 421.892 39.7229 425.554C36.9027 429.616 33.1487 432.936 28.9161 435.458C27.6484 436.213 26.313 436.988 24.9286 437.675L25.2811 437.857C26.2966 437.376 27.2818 436.853 28.232 436.327C32.2685 434.09 35.9759 431.305 39.0039 427.801C41.8824 424.468 43.6987 420.609 45.3073 416.547C46.2201 414.258 47.0886 411.945 48.1788 409.731C48.7415 408.589 49.4745 407.528 50.1306 406.44C53.1936 403.774 56.4106 401.315 59.9359 399.294C59.2355 401.646 59.1421 404.298 59.002 406.676C58.8643 408.96 58.7896 411.247 58.7312 413.534C58.311 415.909 58.2293 418.355 57.5639 420.71C56.7048 423.746 55.6309 426.514 53.936 429.187C51.0177 433.788 46.9929 438.11 42.0062 440.483C42.4147 440.432 42.8209 440.373 43.2271 440.31C47.7609 438.236 51.4846 434.4 54.3562 430.413C55.741 428.497 56.8674 426.407 57.7063 424.197C56.501 429.272 54.2927 434.054 51.2115 438.262C51.8792 438.026 52.5438 437.779 53.2052 437.519C56.9406 432.317 59.2145 425.839 59.9756 419.766C60.7413 413.76 59.6441 407.65 60.9257 401.679C61.1405 400.686 61.4324 399.219 61.9623 398.213C62.2168 398.084 62.4689 397.953 62.7257 397.829C70.3015 394.19 78.5076 393.039 86.7721 394.237C81.2251 397.04 78.6757 403.919 77.1349 409.593C76.1777 413.12 75.5427 416.729 74.2073 420.142C72.7878 423.772 70.619 426.827 68.1 429.747C68.8144 429.299 69.5147 428.85 70.2011 428.402C74.0976 424.664 76.1146 418.997 77.4874 413.919C79.0189 408.243 80.4733 400.922 85.1355 396.867C83.8258 399.229 83.0507 402.24 82.7146 403.812C81.3698 410.093 81.8788 417.028 78.5893 422.686C79.0913 422.326 79.5932 421.969 80.0905 421.607C82.6282 417.21 82.6795 411.812 83.499 406.764C83.9052 404.263 84.4772 401.733 85.4717 399.395C86.5036 396.977 87.783 395.323 90.4257 394.956C93.8903 395.814 97.2451 397.136 100.607 398.343C97.084 401.03 96.0451 405.758 95.3447 410.046C95.5549 409.899 95.7673 409.752 95.9798 409.609C96.1478 408.874 96.2903 408.128 96.4677 407.404C97.2661 404.155 98.4474 400.831 101.447 398.71C101.468 398.695 101.487 398.679 101.506 398.661L102.323 398.946C104.746 399.771 105.811 399.88 108.666 401.172C109.959 401.761 111.619 402.737 113.244 403.333C113.536 403.333 113.853 403.333 114.178 403.368C114.232 403.274 114.262 403.202 114.297 403.127Z" fill="#8F9648"/>
<path d="M204.205 258.815C202.891 255.545 199.809 254.288 196.501 253.842C192.371 253.284 188.115 253.658 184.006 254.209C180.138 254.728 176.206 255.377 172.476 256.531C167.855 257.997 163.504 260.206 159.593 263.071C151.684 268.811 145.719 276.832 140.172 284.762C133.847 293.8 127.117 302.618 121.481 312.107C118.156 317.713 115.098 323.454 112.086 329.224C111.349 330.64 110.613 332.09 109.925 333.569C109.85 333.751 109.785 333.936 109.714 334.118C107.634 340.098 107.427 346.512 108.08 352.786C108.391 355.064 109.434 352.838 109.883 352.085C110.87 350.411 112.437 348.035 113.984 346.86C116.534 344.928 118.784 343.204 121.854 342.674C122.744 342.398 123.633 342.135 124.518 341.866C127.655 340.876 130.725 339.684 133.707 338.297C144.577 333.391 154.674 327.049 164.991 321.118C173.083 316.47 181.419 311.906 188.524 305.788C195.504 299.778 200.628 292.448 202.627 283.363C203.516 279.327 204.35 275.265 204.826 271.156C205.288 267.194 205.73 262.609 204.205 258.815Z" fill="#5A7F3D"/>
<path opacity="0.49" d="M204.205 258.815C202.891 255.545 199.809 254.288 196.501 253.842C192.371 253.284 188.115 253.658 184.006 254.209C180.138 254.728 176.206 255.377 172.476 256.531C167.855 257.997 163.504 260.206 159.593 263.071C151.684 268.811 145.719 276.832 140.172 284.762C133.847 293.8 127.117 302.618 121.481 312.107C118.156 317.713 115.098 323.454 112.086 329.224C111.349 330.64 110.613 332.09 109.925 333.569C109.85 333.751 109.785 333.936 109.714 334.118C107.634 340.098 107.427 346.512 108.08 352.786C108.391 355.064 109.434 352.838 109.883 352.085C110.87 350.411 112.437 348.035 113.984 346.86C116.534 344.928 118.784 343.204 121.854 342.674C122.744 342.398 123.633 342.135 124.518 341.866C127.655 340.876 130.725 339.684 133.707 338.297C144.577 333.391 154.674 327.049 164.991 321.118C173.083 316.47 181.419 311.906 188.524 305.788C195.504 299.778 200.628 292.448 202.627 283.363C203.516 279.327 204.35 275.265 204.826 271.156C205.288 267.194 205.73 262.609 204.205 258.815Z" fill="url(#paint1_linear)"/>
<path opacity="0.96" d="M182.785 283.975C182.969 283.917 183.159 283.854 183.35 283.786C186.618 282.639 191.054 280.481 194.068 278.785C197.082 277.089 199.863 275.015 202.505 272.796C203.288 272.142 204.088 271.488 204.866 270.81C204.903 270.479 204.94 270.145 204.978 269.808C204.277 270.509 203.533 271.172 202.744 271.845C200.175 274.034 196.807 276.157 193.872 277.853C191.015 279.507 187.949 280.621 184.868 281.766C182.654 282.588 180.329 283.461 177.959 283.868C177.507 283.868 177.056 283.868 176.617 283.887C172.893 283.987 169.298 283.384 165.738 284.071C170.589 279.663 175.174 274.991 179.708 270.238C182.248 268.701 184.877 267.302 187.669 266.283C191.239 264.98 194.906 264.017 198.369 262.413C199.94 261.682 201.506 260.925 202.886 259.862C203.321 259.488 203.737 259.092 204.133 258.675C204.032 258.435 203.918 258.201 203.792 257.974C203.593 258.266 203.364 258.536 203.108 258.778C201.593 260.06 200.423 260.542 198.632 261.392C194.575 263.314 189.334 263.756 185.206 265.496C184.62 265.744 184.039 266.022 183.481 266.325C188.528 261.333 194.199 257.127 200.853 255.136C200.414 254.902 199.958 254.701 199.489 254.534C194.021 256.251 189.067 259.439 184.573 263.223C178.247 268.535 172.487 274.496 166.455 280.149C167.288 278.416 167.783 276.68 168.605 274.503C171.047 268.031 172.574 260.443 177.444 255.274C176.759 255.412 176.075 255.559 175.398 255.723C171.896 260.028 169.886 265.589 168.208 270.749C166.996 274.473 165.598 278.03 163.434 281.312C162.123 283.265 160.638 285.094 158.998 286.778C152.753 292.1 146.424 297.269 140.428 302.868C140.434 302.849 140.44 302.83 140.447 302.812C141.119 300.42 140.697 297.584 140.65 295.599C140.583 292.646 140.16 290.532 140.447 287.14C140.521 285.982 140.677 284.831 140.914 283.695L140.197 284.716C139.548 286.98 139.287 289.339 139.427 291.691C139.644 296.232 140.209 301.268 137.874 305.309C137.51 305.664 137.144 306.01 136.782 306.381C131.703 311.392 127.076 316.841 122.954 322.665C123.175 321.551 123.287 320.418 123.288 319.282C123.288 316.947 121.957 313.398 122.149 310.99C121.97 311.286 121.791 311.583 121.612 311.882C121.378 313.637 121.612 315.461 121.74 317.285C121.74 317.411 121.74 317.538 121.761 317.664C121.095 316.639 120.547 315.542 120.127 314.393L119.833 314.907C120.463 316.881 121.637 318.703 121.773 320.819C121.698 322.307 121.502 323.786 121.184 325.241C120.068 326.926 118.994 328.648 117.963 330.406C115.745 334.192 113.501 338.065 111.711 342.102C111.805 341.068 111.839 340.03 111.813 338.993C111.755 336.708 110.7 334.321 110.618 332.104C110.415 332.518 110.212 332.929 110.016 333.347C110.069 334.592 110.249 335.853 110.387 337.049C110.772 340.53 110.139 343.844 109.745 347.236C109.278 348.717 108.832 350.231 108.379 351.688C108.254 352.102 108.159 352.525 108.094 352.952C108.328 354.288 108.848 353.77 109.301 353.06C109.448 352.469 109.639 351.891 109.871 351.329C110.571 349.633 111.491 347.825 112.107 346.106C112.635 344.647 113.249 343.222 113.945 341.836C114.993 341.259 116.011 340.684 117.23 340.371C118.98 339.927 120.759 339.599 122.552 339.388C124.231 339.189 125.858 339.25 127.553 339.299C128.476 339.333 129.39 339.49 130.271 339.766L131.16 339.395H131.13C128.457 338.418 124.306 338.14 121.955 338.273C120.047 338.381 117.211 338.591 115.114 339.616C116.356 337.358 117.722 335.16 119.037 332.947C119.7 331.834 120.378 330.731 121.072 329.637C121.562 329.237 122.095 328.892 122.66 328.607C124.173 327.888 125.877 327.591 127.539 327.507C131.083 327.327 134.335 328.292 137.769 328.969C141.862 329.798 146.051 330.046 150.213 329.705L152.16 328.589C150.754 328.803 149.335 328.922 147.913 328.946C143.169 329.039 138.684 327.374 134.046 326.514C131.151 325.979 127.313 325.367 124.415 325.961C124.023 326.044 123.638 326.158 123.264 326.302C127.323 320.309 131.922 314.702 137.004 309.549C138.093 308.448 139.193 307.363 140.305 306.295C141.636 305.858 143.019 305.598 144.418 305.522C147.771 305.233 151.147 305.641 154.333 306.722C159.539 308.498 164.552 310.803 169.819 312.415C172.207 313.146 174.642 313.732 177.142 313.889C177.194 313.889 177.243 313.889 177.292 313.889C177.899 313.51 178.502 313.127 179.101 312.737C174.766 312.504 170.414 311.13 166.494 309.584C165.201 309.075 163.912 308.512 162.619 307.949C163.382 307.949 164.146 307.949 164.897 307.907C169.1 307.715 173.393 307.573 177.542 306.846C183.285 305.831 188.78 303.72 193.727 300.628C194.493 299.748 195.222 298.843 195.915 297.911C190.312 301.882 184.132 304.513 177.182 305.529C173.213 306.106 169.226 306.314 165.241 306.608C163.462 306.739 161.662 306.891 159.871 306.739C157.235 305.606 154.56 304.576 151.775 304.031C148.894 303.466 145.793 303.289 142.875 303.84C148.296 298.773 153.953 293.973 159.71 289.278C160.338 288.764 160.952 288.238 161.578 287.717C162.821 287.168 164.107 286.72 165.423 286.377C169.847 285.209 174.439 284.952 178.996 285.111C184.261 285.293 189.609 285.76 194.82 284.735C197.317 284.222 199.757 283.462 202.104 282.464C202.363 282.357 202.629 282.23 202.9 282.095C202.968 281.789 203.031 281.485 203.096 281.179C200.614 282.347 198.712 282.814 196.029 283.41C191.997 284.3 187.284 284.127 182.785 283.975Z" fill="#454910"/>
<path d="M123.829 141.504C123.201 128.306 116.767 115.473 106.025 107.65C100.717 103.782 94.0699 98.9885 87.1152 99.9415C81.1502 100.761 80.2934 107.066 80.046 111.971C79.3876 125.02 81.8646 137.753 88.4202 149.131C95.0995 160.708 105.804 170.07 111.362 182.266C111.843 183.001 112.296 183.751 112.716 184.527C113.159 185.349 113.559 186.192 113.916 187.054C114.197 187.725 114.383 188.645 114.733 189.39C114.81 189.405 114.89 189.398 114.963 189.37C115.035 189.341 115.098 189.292 115.144 189.229C115.174 189.193 115.202 189.155 115.226 189.115C115.518 187.262 116.146 185.501 116.697 183.705C117.024 182.646 117.374 181.602 117.768 180.579C118.21 179.077 118.702 177.596 119.169 176.157C120.386 172.399 121.014 168.524 121.665 164.634C122.923 157.066 124.203 149.201 123.829 141.504Z" fill="#5A7F3D"/>
<path opacity="0.49" d="M123.829 141.504C123.201 128.306 116.767 115.473 106.025 107.65C100.717 103.782 94.0699 98.9885 87.1152 99.9415C81.1502 100.761 80.2934 107.066 80.046 111.971C79.3876 125.02 81.8646 137.753 88.4202 149.131C95.0995 160.708 105.804 170.07 111.362 182.266C111.843 183.001 112.296 183.751 112.716 184.527C113.159 185.349 113.559 186.192 113.916 187.054C114.197 187.725 114.383 188.645 114.733 189.39C114.81 189.405 114.89 189.398 114.963 189.37C115.035 189.341 115.098 189.292 115.144 189.229C115.174 189.193 115.202 189.155 115.226 189.115C115.518 187.262 116.146 185.501 116.697 183.705C117.024 182.646 117.374 181.602 117.768 180.579C118.21 179.077 118.702 177.596 119.169 176.157C120.386 172.399 121.014 168.524 121.665 164.634C122.923 157.066 124.203 149.201 123.829 141.504Z" fill="url(#paint2_linear)"/>
<path opacity="0.96" d="M122.972 153.466C122.214 156.022 121.572 158.687 120.514 161.133C119.545 163.352 118.252 165.41 116.893 167.409C115.94 168.811 114.696 170.619 113.93 172.516C113.748 171.675 113.562 170.836 113.372 170.009C112.889 167.907 112.371 165.837 111.841 163.763C112.016 163.686 112.856 159.523 113.33 157.652C113.804 155.781 114.264 153.915 114.787 152.046C115.856 148.229 116.958 144.426 117.724 140.528C118.45 136.83 118.95 133.011 118.791 129.238C118.667 126.295 119.064 121.997 116.947 119.633C116.863 119.537 116.713 119.633 116.744 119.752C117.178 121.658 117.74 123.41 117.864 125.389C117.979 127.202 117.979 129.021 117.864 130.834C117.61 134.842 116.543 138.603 115.261 142.382C114.082 145.863 112.798 149.257 111.888 152.824C111.452 154.5 111.161 156.211 111.017 157.937C110.97 158.556 110.9 159.206 110.846 159.864L110.573 158.797C110.266 156.554 109.73 154.349 108.972 152.217C108.777 151.371 108.591 150.522 108.414 149.67C107.865 147.047 107.209 144.459 106.427 141.918C106.505 141.908 106.577 141.873 106.633 141.818C106.688 141.762 106.723 141.69 106.733 141.612C106.878 139.995 107.116 138.014 107.288 136.389C107.461 134.763 107.235 133.534 107.288 131.911C107.377 129.194 107.615 126.795 106.88 124.249C106.808 121.149 107.33 118.206 107.797 115.071C108.059 113.324 108.355 111.119 108.001 109.182C107.52 108.783 107.025 108.4 106.525 108.014C106.737 109.222 107.034 110.402 107.034 111.663C106.994 113.462 106.838 115.257 106.567 117.036C106.326 118.587 106.171 120.151 106.1 121.719C104.45 116.384 103.126 111.077 102.953 105.445C102.625 105.219 102.293 104.994 101.959 104.77C101.957 104.777 101.957 104.784 101.959 104.791C101.959 110.953 103.147 116.952 104.599 122.915C105.367 126.059 105.416 129.367 105.369 132.597C105.346 134.233 105.243 135.842 105.346 137.468C105.388 138.169 105.292 137.961 105.43 138.636C104.457 135.816 103.525 133.922 102.162 131.231C101.186 129.292 100.117 127.426 98.9889 125.599C98.0224 121.476 98.9119 117.11 98.3586 112.934C97.8427 109.035 96.6777 105.302 96.024 101.455C95.4217 101.194 94.8147 100.958 94.2007 100.754C94.859 104.959 96.4909 108.965 97.1049 113.193C97.6045 116.641 97.1423 120.201 97.7259 123.6C95.9003 120.796 93.9439 118.08 91.9361 115.368C88.7587 111.077 85.5136 106.23 84.3347 100.911C83.9862 101.127 83.6587 101.375 83.3565 101.651C84.3323 105.564 86.2864 109.259 88.2941 112.705C91.3922 118.024 95.0855 122.964 98.1672 128.295C101.221 133.574 103.7 140.675 105.43 146.475C103.952 144.412 101.884 141.766 99.8271 140.131C96.722 137.652 93.2762 134.901 89.8653 132.889C86.7953 131.074 83.8794 129.021 80.7954 127.244C80.8398 127.521 80.8841 127.799 80.9308 128.077C83.4825 129.862 85.9712 131.756 88.3362 133.758C91.2848 136.237 94.5532 138.311 97.4294 140.89C100.1 143.289 102.549 145.882 104.471 148.935C105.783 151.021 106.868 153.258 107.972 155.475C108.565 157.845 109.151 160.212 109.728 162.576C107.65 160.091 104.762 158.138 102.068 156.765C98.6037 154.996 94.6629 154.933 91.2217 153.555C91.67 154.212 92.1268 154.863 92.5921 155.508C94.4435 156.209 96.4372 156.645 98.3142 157.113C101.104 157.813 103.628 159.577 106.018 161.133C108.862 162.99 109.579 165.917 111.19 168.561C111.603 170.318 111.939 172.065 112.207 173.807C111.794 173.284 111.317 172.813 110.788 172.406C108.727 170.799 106.039 170.878 103.728 169.881C104.029 170.282 104.326 170.687 104.622 171.091C105.869 171.731 107.249 172.123 108.533 172.77C110.316 173.672 111.633 175.249 112.618 176.994C112.728 178.033 112.817 179.079 112.884 180.14C112.99 181.775 112.91 183.441 112.99 185.073C113.319 185.723 113.634 186.379 113.912 187.054C114.19 187.729 114.379 188.645 114.729 189.39C114.806 189.405 114.885 189.398 114.958 189.37C115.031 189.341 115.094 189.292 115.14 189.229C115.17 189.193 115.197 189.154 115.221 189.114C115.284 188.715 115.366 188.323 115.455 187.93C114.862 185.204 115.502 182.228 115.156 179.465C115.021 178.386 114.853 177.3 114.663 176.213C115.014 174.828 115.158 173.354 115.758 172.037C116.692 169.972 118.184 168.197 119.391 166.288C120.625 164.373 121.633 162.321 122.393 160.173C122.758 157.865 123.094 155.538 123.35 153.205C123.267 153.198 123.184 153.22 123.115 153.268C123.046 153.315 122.995 153.386 122.972 153.466V153.466Z" fill="#454910"/>
<path d="M234.436 135.538C230.579 126.078 218.913 128.502 211.489 131.607C205.34 134.176 199.389 137.5 193.681 140.929C187.092 144.886 180.677 149.14 174.432 153.62C168.857 157.617 163.494 161.887 158.013 166.015C152.487 170.175 146.958 174.342 141.799 178.956C136.791 183.431 132.304 188.36 128.753 194.078C124.997 200.128 122.251 206.76 120.015 213.508C118.035 219.495 116.513 225.615 114.645 231.637C113.529 235.255 112.455 238.89 111.843 242.616C111.672 243.031 111.536 243.46 111.44 243.898C111.26 244.819 111.127 245.734 110.891 246.643C110.878 246.704 110.87 246.765 110.868 246.828C110.836 246.91 110.813 246.995 110.8 247.082C110.763 247.341 110.723 247.598 110.681 247.858C110.672 247.927 110.672 247.998 110.681 248.068C110.62 248.549 110.564 249.044 110.541 249.532C110.307 250.843 110.163 252.17 110.025 253.485C109.749 255.94 109.68 258.414 109.817 260.88C109.85 261.387 109.873 261.938 109.91 262.501C109.91 262.546 109.91 262.592 109.91 262.637C109.91 262.651 109.91 262.665 109.91 262.677C109.912 262.686 109.912 262.695 109.91 262.705C110.158 263.639 110.223 264.627 110.349 265.601C110.597 266.652 110.858 267.727 111.391 268.654C111.419 268.706 111.449 268.752 111.479 268.799C111.543 268.709 111.636 268.644 111.743 268.617C112.005 268.192 112.063 267.643 112.21 267.18C112.372 266.708 112.561 266.244 112.775 265.793C112.899 265.519 113.037 265.253 113.188 264.994C113.209 264.935 113.23 264.875 113.254 264.819C113.897 263.413 114.835 262.162 116.004 261.151C116.259 260.863 116.525 260.588 116.802 260.327C117.066 260.077 117.339 259.838 117.619 259.607C118.545 258.723 119.548 257.925 120.617 257.222L120.769 257.112C124.772 254.309 129.337 252.424 133.609 250.077C147.521 242.424 161.465 234.828 175.583 227.566C181.846 224.342 188.148 221.17 194.208 217.57C199.888 214.2 205.662 210.462 210.324 205.725C219.347 196.554 224.03 184.067 228.326 172.193C230.521 166.12 232.815 160.065 234.284 153.765C235.594 148.094 236.712 141.121 234.436 135.538Z" fill="#899E3C"/>
<path opacity="0.79" d="M234.435 135.538C230.581 126.078 218.913 128.502 211.489 131.607C205.339 134.176 199.388 137.5 193.68 140.929C187.092 144.886 180.677 149.14 174.431 153.62C168.856 157.617 163.494 161.887 158.012 166.015C155.318 168.042 152.626 170.072 149.977 172.153C151.611 173.95 153.261 175.732 154.879 177.526C162.915 186.456 169.895 196.339 177.102 205.938C180.604 210.609 184.15 215.202 187.841 219.701L188.668 220.705C190.522 219.687 192.366 218.65 194.185 217.568C199.888 214.2 205.661 210.462 210.324 205.725C219.347 196.554 224.03 184.067 228.326 172.193C230.52 166.12 232.815 160.065 234.284 153.765C235.593 148.094 236.712 141.121 234.435 135.538Z" fill="url(#paint3_linear)"/>
<path d="M232.874 149.698C230.219 150.574 227.738 151.831 225.293 153.172C222.791 154.545 220.33 155.998 217.76 157.241C215.63 158.274 213.45 158.897 211.258 159.577C206.752 160.044 201.205 159.878 197.266 159.99C196.429 160.01 195.596 160.105 194.775 160.273C197.561 158.481 200.269 156.582 202.739 154.314C208.342 149.175 213.903 143.99 219.114 138.444C221.52 135.9 224.116 133.543 226.879 131.392C227.579 130.843 228.279 130.341 229.008 129.864C228.714 129.741 228.415 129.631 228.109 129.526C225.604 131.343 223.206 133.366 220.872 135.403C218.922 137.11 217.02 138.869 215.124 140.638C217.055 138.393 218.822 135.994 220.685 133.705C221.974 132.121 223.295 130.549 224.817 129.18C224.913 129.094 225.013 129.009 225.111 128.923C224.81 128.895 224.502 128.879 224.194 128.867C223.05 129.937 221.979 131.082 220.986 132.294C217.601 136.323 214.561 140.675 210.961 144.522C209.25 146.111 207.527 147.683 205.76 149.213C203.164 151.462 200.607 153.782 197.822 155.786C195.441 157.496 192.95 159.033 190.454 160.567C190.708 160.114 190.873 159.616 190.942 159.1C191.239 157.157 190.662 153.702 190.814 152.107C191.208 147.951 192.415 143.796 194.549 140.413L193.669 140.937L193.074 141.296C191.56 143.842 190.504 146.634 189.955 149.544C189.161 153.749 190.102 158.533 187.704 162.291C182.801 165.461 178.132 168.956 173.391 172.354C168.649 175.753 163.973 179.201 159.738 183.244C159.763 183.174 159.787 183.104 159.813 183.032C160.662 180.418 161.262 175.718 161.848 173.036C162.411 170.467 162.929 166.262 163.602 163.707C163.855 162.734 164.218 161.794 164.685 160.904L163.518 161.803C162.29 165.027 161.456 168.47 160.809 171.682C160.289 174.274 159.775 176.867 159.096 179.423C158.514 181.612 157.602 183.782 156.995 185.963C152.855 190.217 148.812 194.655 145.058 199.234C142.826 201.953 140.73 204.8 138.738 207.732C138.738 207.669 138.738 207.612 138.738 207.545C138.82 204.907 138.252 198.435 137.718 195.847C136.957 192.153 135.661 188.633 135.6 185.041C135.409 185.251 135.22 185.466 135.031 185.678C134.919 188.481 135.432 191.268 136.219 194.19C136.97 197.074 137.348 200.042 137.344 203.022C137.365 205.265 137.05 207.64 137.284 209.902C132.635 217.024 128.578 224.59 124.798 232.093C124.513 232.66 124.233 233.23 123.951 233.798C123.892 232.63 123.484 231.462 123.003 230.362C122.345 227.353 121.191 224.499 120.925 221.357C120.624 217.797 121.217 214.244 121.016 210.682C121.015 210.671 121.012 210.661 121.006 210.651C121 210.642 120.993 210.634 120.983 210.628L120.864 210.957C120.72 214.891 119.629 218.762 120.054 222.709C120.145 223.553 120.26 224.45 120.418 225.354C119.279 223.158 118.343 220.899 118.471 218.395C118.208 219.284 117.949 220.175 117.694 221.067C118.198 223.403 119.305 225.505 120.496 227.776C121.565 229.799 122.811 231.962 122.83 234.316C122.83 235.174 122.615 236.005 122.457 236.844C120.008 241.878 116.552 247.031 114.608 252.345C113.361 255.758 112.584 258.087 111.573 261.801C111.239 263.022 110.872 264.837 110.461 266.029C110.604 266.617 111.353 268.332 111.573 268.892C112.128 267.285 112.551 265.361 113.261 263.826C114.47 261.207 115.243 257.844 116.228 255.132C116.356 254.777 116.492 254.431 116.622 254.071C118.345 253.728 120.094 253.508 121.843 253.791C122.783 253.979 123.691 254.302 124.539 254.749C124.964 254.515 125.394 254.281 125.823 254.048C123.313 252.522 119.753 252.716 116.917 253.279C119.018 247.696 121.399 242.233 124.002 236.865C124.447 236.505 124.959 236.238 125.508 236.078C126.757 235.73 128.09 235.69 129.381 235.713C132.402 235.767 135.411 236.283 138.365 236.902C141.498 237.556 144.596 238.374 147.719 239.075C149.181 239.402 150.652 239.698 152.134 239.927L153.876 238.993C153.626 238.974 153.376 238.953 153.131 238.921C150.678 238.572 148.245 238.099 145.84 237.505C144.189 237.122 142.539 236.727 140.884 236.358L141.061 236.339C144.437 235.893 148.683 234.55 152.092 234.405C155.757 234.249 159.453 234.503 163.041 234.095L164.442 233.347C163.148 233.607 161.83 233.72 160.511 233.683C157.476 233.597 154.427 233.704 151.382 233.856C148.597 233.999 145.877 234.557 143.12 234.942C141.355 235.176 139.518 235.583 137.697 235.699C137.267 235.618 136.842 235.531 136.413 235.466C133.415 234.945 129.227 233.859 126.185 234.148C125.862 234.182 125.545 234.251 125.237 234.354C129.341 226.103 133.856 218.07 139.011 210.446C143.286 209.593 147.715 211.21 151.562 212.98C155.566 214.823 159.35 217.096 163.235 219.177C167.671 221.553 172.312 223.135 177.322 223.681C178.956 223.859 180.679 223.98 182.425 224.022C182.953 223.749 183.478 223.471 184.004 223.195C181.51 223.167 178.746 222.857 176.435 222.586C170.984 221.943 166.45 219.315 161.685 216.711C159.726 215.643 157.63 214.354 155.449 213.118C157.295 213.498 159.169 213.727 161.052 213.805C166.933 214.055 172.931 213.789 178.678 212.471C184.492 211.137 190.202 209.133 196.174 208.612C199.023 208.345 201.892 208.395 204.73 208.762C205.391 208.85 206.08 208.9 206.773 208.951C207.224 208.575 207.665 208.189 208.101 207.799C207.254 207.711 206.406 207.65 205.599 207.549C202.918 207.191 200.209 207.095 197.509 207.262C191.612 207.654 186.021 209.474 180.341 210.976C174.124 212.611 167.855 213.207 161.43 213.109C158.876 213.073 156.333 212.778 153.838 212.228C149.473 209.892 144.81 208.012 140.207 208.724C141.402 207.004 142.633 205.304 143.9 203.625C147.943 198.33 152.685 193.644 157.186 188.738C158.076 187.771 158.988 186.832 159.913 185.91C170.839 182.039 181.916 188.752 192.852 190.257C199.214 191.133 205.643 190.787 211.995 190.035C215.1 189.668 218.532 189.208 221.7 188.708C221.826 188.439 221.955 188.171 222.079 187.902C221.682 187.991 221.283 188.068 220.881 188.136C217.426 188.638 213.877 189.009 210.408 189.395C203.84 190.111 197.203 189.883 190.699 188.715C189.644 188.526 188.598 188.292 187.566 188.031C188.47 187.977 189.334 187.89 190.074 187.832C194.556 187.484 198.873 186.732 203.147 185.321C207.254 183.964 211.29 182.242 215.598 181.628C218.542 181.207 221.901 180.717 225.011 181.03C225.074 180.866 225.137 180.703 225.202 180.542C222.862 180.018 220.447 179.915 218.07 180.236C213.943 180.815 209.886 181.809 205.958 183.202C201.84 184.662 197.775 185.963 193.426 186.522C190.435 186.905 187.193 187.405 184.125 187.071C180.623 186.024 177.159 184.849 173.554 184.176C170.778 183.658 167.099 182.882 164.286 183.135C163.673 183.188 163.067 183.296 162.474 183.459C165.378 180.794 168.452 178.321 171.677 176.057C177.222 172.154 182.587 167.949 188.309 164.321C189.032 163.854 189.759 163.399 190.489 162.955C191.509 162.773 192.52 162.513 193.554 162.308C195.976 161.842 198.434 161.587 200.899 161.544C205.465 161.433 210.011 160.886 214.472 159.909C218.941 158.935 223.344 157.718 227.763 156.55C229.827 156.003 231.907 155.534 233.973 154.985C234.074 154.581 234.181 154.179 234.275 153.772C234.289 153.716 234.303 153.656 234.314 153.599C232.164 154.256 230.037 155.001 227.887 155.643C224.331 156.723 220.706 157.643 217.076 158.479C219.499 157.451 221.824 156.211 224.152 154.975C226.766 153.599 229.402 152.226 232.169 151.179C233.098 150.826 234.046 150.524 235.008 150.273C235.087 149.841 235.159 149.404 235.241 148.963C234.37 149.201 233.56 149.47 232.874 149.698Z" fill="#7C712F"/>
<path d="M107.275 295.723C107.557 293.737 107.275 291.488 107.296 289.619C107.319 286.842 107.247 284.062 107.039 281.294C106.939 279.964 106.803 278.64 106.63 277.323C105.972 274.636 105.23 271.964 104.515 269.299C101.48 258.126 97.5791 247.164 93.8671 236.202C92.2002 231.282 90.2998 226.33 87.4072 221.983C84.8835 218.192 81.4236 215.361 77.3871 213.289C73.2946 211.186 68.8215 209.857 64.3647 208.776C59.4831 207.587 54.5361 206.55 49.5283 206.092C44.0234 205.59 38.6981 205.753 33.2795 206.888C29.3294 207.72 26.3107 209.325 24.1746 212.826C20.2851 219.157 20.7637 227.426 20.9061 234.566C20.9995 239.063 21.0672 243.574 21.4945 248.054C21.9217 252.534 22.6267 257.222 24.5458 261.324C28.4819 269.733 37.3604 274.872 45.6109 278.271C54.3796 281.899 63.613 283.73 72.8977 285.484C77.735 286.398 82.5746 287.332 87.3348 288.596C91.9153 289.818 96.26 291.527 100.728 293.05C101.807 293.419 102.874 293.847 103.918 294.309C104.649 294.621 105.398 294.89 106.161 295.113C106.279 295.302 106.443 295.457 106.638 295.563C106.833 295.67 107.052 295.725 107.275 295.723Z" fill="#3C5B28"/>
<path opacity="0.47" d="M107.275 295.723C107.351 295.149 107.391 294.571 107.396 293.992C106.838 292.167 106.299 290.338 105.631 288.551C104.065 284.347 102.337 280.226 100.128 276.316C100.047 276.171 99.9673 276.022 99.8949 275.877C101.947 272.406 103.014 267.958 102.953 263.784C102.757 263.123 102.561 262.459 102.358 261.801C102.384 262.121 102.407 262.471 102.409 262.903C102.421 264.788 101.809 266.972 101.291 269.621C100.962 271.291 100.247 272.424 99.5658 273.968C99.456 274.214 99.351 274.461 99.2506 274.709C96.4024 269.451 93.9627 264.015 90.8951 258.916C91.3073 258.122 91.8335 257.394 92.4569 256.753C93.3581 255.8 94.2592 254.924 94.9222 253.781C95.2538 253.207 95.5876 252.59 95.9028 251.948C96.4699 250.011 96.9143 248.04 97.2335 246.047L96.8063 244.791C95.9028 248.276 95.3448 251.955 92.8888 254.781C92.1884 255.596 90.9651 256.65 90.211 257.818C89.2119 256.212 88.1303 254.659 86.9706 253.165C84.7323 250.328 82.3241 247.63 79.759 245.085C82.3084 241.798 80.7769 235.316 80.1139 231.936C80.0096 231.404 79.9022 230.871 79.7917 230.338C81.5753 225.846 79.731 220.404 81.7248 215.994L81.566 215.877C79.1754 219.269 79.9668 223.735 79.2174 227.678C78.8929 226.258 78.538 224.844 78.1388 223.459C77.3987 220.89 76.4392 218.365 75.5871 215.828C75.1482 214.522 74.6533 213.207 74.2914 211.857C73.8735 211.686 73.4533 211.525 73.0307 211.364C73.1918 214.132 74.4011 217.061 75.0875 219.504C76.033 222.861 76.8524 226.218 77.6275 229.614C78.2625 232.403 78.9466 235.19 79.2151 238.044C79.3528 239.516 79.7847 242.567 78.6945 244.024C75.1926 240.607 71.4572 237.4 67.6915 234.347C63.748 231.16 59.513 228.352 55.0426 225.961C55.2317 225.356 55.0706 224.62 55.0426 224.092C54.9609 222.548 55.0846 220.836 54.9516 219.294C54.7695 217.192 54.4847 214.952 53.5508 213.032C52.7127 211.31 51.6108 209.708 50.6232 208.07C50.266 207.475 49.8248 206.795 49.4373 206.075C49.1641 206.05 48.8886 206.029 48.6155 206.005L48.6715 206.143C49.4466 208.056 50.5135 209.822 51.508 211.623C51.9621 212.446 52.3419 213.309 52.6427 214.2C51.9017 213.12 50.962 212.192 49.8738 211.464C48.5688 210.591 47.0023 210.224 45.6715 209.374C44.2101 208.439 42.9284 207.152 41.7984 205.844H41.7494C43.435 207.713 45.1509 209.488 47.2941 210.838C48.5641 211.637 49.8621 212.259 50.9057 213.373C52.2061 214.774 52.8084 216.409 53.4294 218.175C53.4401 218.201 53.4542 218.224 53.4714 218.245C53.4831 218.381 53.4995 218.512 53.5111 218.65C53.6512 220.308 53.7586 221.969 53.8123 223.632C53.831 224.172 53.7563 224.765 53.7983 225.316C51.1228 223.915 48.3843 222.632 45.6038 221.45C43.8389 220.7 42.0412 220.021 40.2646 219.297C40.2638 219.22 40.2465 219.144 40.2139 219.075C40.1813 219.006 40.1341 218.944 40.0755 218.895C39.1603 218.18 38.3689 217.981 37.6685 216.912C37.086 215.967 36.604 214.964 36.2304 213.919C35.2815 211.524 34.1668 209.198 32.8943 206.958L32.7028 207.003C33.3718 208.615 33.9578 210.26 34.4585 211.931C34.8764 213.382 35.2032 214.828 35.7892 216.227C35.9855 216.697 36.2052 217.157 36.4475 217.605C35.2756 217.033 34.1431 216.383 33.0577 215.66C31.3348 214.492 29.8033 213.104 28.0617 211.967C27.3963 211.53 26.6235 211.084 25.8811 210.584C25.7387 210.728 25.601 210.876 25.4656 211.03C26.5792 211.995 27.8726 212.81 28.9815 213.723C29.7612 214.361 30.5223 214.987 31.2857 215.592C28.6757 215.003 25.5636 215.825 22.8088 215.491C22.7481 215.636 22.6897 215.781 22.6337 215.928C23.6524 216.107 24.6861 216.185 25.7201 216.162C28.092 216.178 31.5332 215.613 33.4242 217.33C33.4598 217.363 33.5031 217.388 33.5503 217.401C33.5975 217.414 33.6472 217.415 33.6951 217.404C35.1657 218.467 36.7283 219.396 38.3642 220.18C40.6311 221.254 42.9494 222.207 45.256 223.193C42.0739 223.083 38.8078 223.539 36.1137 224.038C31.4445 224.905 25.7364 226.253 20.8944 224.973C20.8944 225.125 20.8781 225.276 20.8711 225.44C24.8119 226.795 29.4367 226.33 33.4336 225.762C36.625 225.309 39.7603 224.664 43.0054 224.613C45.6568 224.589 48.2954 224.983 50.824 225.781C54.3333 227.553 57.7219 229.554 60.9678 231.773C58.8667 231.749 56.5881 232.415 54.9329 232.859C50.1703 234.137 45.926 236.166 41.6607 238.624C35.7262 242.044 28.5566 246.356 21.3754 246.708C21.401 247.026 21.4267 247.341 21.4571 247.659C27.0601 247.591 33.074 244.856 37.5658 242.45C42.235 239.937 46.7338 237.117 51.7508 235.349C55.3998 234.062 60.1764 232.296 63.9351 233.901C68.5169 237.359 72.8361 241.153 76.8571 245.251C75.1038 244.998 71.8051 246.538 71.0206 246.886C66.8462 248.744 63.06 251.374 59.8612 254.639C57.9936 256.533 56.2449 258.542 54.5057 260.558C52.638 261.798 50.9104 263.27 48.8232 264.211C45.7872 265.537 42.5252 266.267 39.214 266.363C35.3013 266.526 30.6951 266.405 26.7426 265.043C26.9247 265.295 27.1138 265.545 27.3052 265.793C31.071 267.168 35.418 267.383 39.2117 267.26C42.4811 267.19 45.7107 266.527 48.7439 265.304C49.5983 264.949 50.5252 264.536 51.4497 264.057C50.5672 265.045 49.6707 266.019 48.7415 266.965C45.8186 269.934 42.3961 273.239 38.3853 274.816C38.6965 274.992 39.0078 275.164 39.3191 275.332C41.9829 274.527 44.4902 272.87 46.5797 271.242C50.5252 268.168 53.6675 264.372 56.915 260.6C60.3725 256.585 64.0262 252.525 68.7537 249.986C70.8549 248.853 74.9007 246.603 77.1093 247.253C77.4198 247.344 80.7466 249.355 82.0376 250.829C84.3907 253.488 86.5378 256.322 88.4601 259.308C88.4453 259.315 88.4312 259.324 88.4181 259.334C88.4403 259.41 88.4506 259.488 88.4484 259.567C88.4274 260.502 87.8578 261.53 87.155 262.237C85.9364 263.84 83.9029 265.302 82.738 266.274C79.4689 269.023 75.9829 271.503 72.314 273.69C68.5576 275.902 64.5841 277.372 60.564 279.014C58.7546 279.752 56.9523 280.511 55.178 281.331L54.8699 281.471L55.3368 281.607C55.9858 281.373 56.6278 281.168 57.2185 280.925C59.3079 280.067 61.3997 279.229 63.5219 278.451C67.582 276.977 71.472 275.071 75.1248 272.765C78.3817 270.703 81.4756 268.394 84.3792 265.858C85.0049 265.311 85.78 264.667 86.5364 263.952C86.464 264.169 86.394 264.382 86.3239 264.587C85.3438 267.538 83.9979 270.355 82.3178 272.971C79.0937 277.956 74.5972 282.669 68.9148 284.73L69.1856 284.784C74.2354 283.23 78.2672 279.395 81.5076 275.304C83.5658 272.765 85.3647 270.027 86.8772 267.129C87.8671 265.171 88.1659 262.924 89.6787 261.326C89.8608 261.637 90.0429 261.945 90.2204 262.261C92.4709 266.3 94.3573 270.527 96.4748 274.641C97.5674 276.76 98.6343 278.846 99.6451 280.962C99.5628 280.981 99.484 281.014 99.4117 281.058C98.0856 281.866 96.4304 281.618 94.9759 282.104C93.8176 282.507 92.7331 283.097 91.7659 283.851C89.9145 285.253 88.376 286.977 86.5784 288.418C86.8119 288.479 87.0453 288.537 87.2788 288.6C88.7216 287.603 90.0126 286.395 91.418 285.293C92.7417 284.253 94.1285 283.279 95.7884 282.868C97.1892 282.52 98.6133 282.814 99.9907 282.434C100.092 282.405 100.188 282.356 100.271 282.291C101.242 284.377 102.155 286.496 102.974 288.694C103.714 290.677 104.31 292.702 104.926 294.725C105.332 294.868 105.743 295.001 106.156 295.129C106.277 295.315 106.443 295.468 106.638 295.571C106.834 295.675 107.053 295.727 107.275 295.723Z" fill="#8F9648"/>
<path d="M181.797 428.549C181.802 428.257 181.697 427.973 181.503 427.755C181.309 427.537 181.04 427.399 180.749 427.369H180.735C176.918 427.073 173.057 427.231 169.235 427.316C165.084 427.407 160.963 427.255 156.81 427.294C145.973 427.397 135.747 427.294 125.225 427.528C115.012 427.762 104.798 427.785 94.5838 428.028C90.7948 428.119 87.4213 427.93 83.6322 427.748C81.2136 427.629 78.3513 427.848 75.928 427.825C73.6728 427.799 65.3033 428.633 65.3616 429.539C65.476 431.228 66.3258 437.694 67.7873 446.591C68.9266 446.617 70.0705 446.559 71.1071 446.554C74.1421 464.919 79.8361 493.854 86.9637 511.025C89.9706 518.266 93.4679 525.694 96.9861 532.767C97.2975 533.247 97.7862 533.583 98.3448 533.702C99.1409 533.914 100.383 534.132 104.613 534.522C107.004 534.755 109.39 535.015 111.792 535.124C113.28 535.191 114.766 535.262 116.249 535.337C119.303 535.325 122.725 535.447 125.776 535.337C129.874 535.187 133.777 535.26 137.874 535.138C145.042 534.926 149.185 534.916 157.102 534.328C157.141 534.325 157.18 534.319 157.219 534.311C157.964 534.176 160.086 534.396 161.213 531.959C161.603 531.116 165.416 522.034 166.613 518.453C169.062 511.058 170.979 503.497 172.349 495.827C174.917 481.434 177.096 467.724 177.387 453.176C177.436 450.735 177.548 448.329 177.679 445.935C178.803 445.907 179.925 445.873 181.046 445.835C181.359 440.212 181.765 434.583 181.797 428.549Z" fill="#586363"/>
<path opacity="0.21" d="M159.184 528.395C154.193 528.645 149.937 528.698 145.102 528.862C139.076 529.079 131.648 529.095 125.617 528.997C114.768 528.808 105.241 528.792 94.4551 527.607C95.3889 529.567 96.0286 530.847 96.9835 532.765C97.2949 533.244 97.7835 533.58 98.3422 533.699C99.1383 533.912 100.38 534.129 104.611 534.519C107.001 534.753 109.387 535.012 111.789 535.122C113.277 535.189 114.763 535.26 116.246 535.334C119.3 535.323 122.722 535.444 125.774 535.334C129.871 535.185 133.774 535.257 137.872 535.136C145.039 534.923 149.183 534.914 157.099 534.325C157.139 534.322 157.178 534.317 157.216 534.309C157.961 534.174 160.083 534.393 161.211 531.957C161.36 531.634 162.009 530.104 162.821 528.14C161.61 528.203 160.389 528.334 159.184 528.395Z" fill="#60441C"/>
<path opacity="0.28" d="M163.597 446.316C146.951 446.612 130.34 446.804 113.688 446.68C105.379 446.617 97.07 446.533 88.7612 446.498C84.727 446.482 80.6936 446.482 76.6609 446.498C74.9473 446.498 73.005 446.605 71.1069 446.568C71.3007 447.488 71.6766 450.004 71.875 451.02H71.8587C75.0267 469.348 80.387 495.192 86.9612 511.02C89.9682 518.262 93.4654 525.69 96.9836 532.763C97.295 533.242 97.7837 533.578 98.3424 533.697C99.1385 533.91 100.38 534.127 104.611 534.517C107.001 534.751 109.387 535.01 111.79 535.12C113.278 535.187 114.763 535.258 116.246 535.332C119.3 535.321 122.723 535.442 125.774 535.332C129.871 535.183 133.775 535.255 137.872 535.134C145.039 534.921 149.183 534.912 157.1 534.323C157.139 534.32 157.178 534.315 157.216 534.307C157.961 534.171 160.083 534.391 161.211 531.955C161.601 531.111 165.413 522.029 166.611 518.448C167.899 514.622 169.076 510.506 170.096 506.381C167.512 506.675 164.92 506.886 162.322 506.991C156.95 507.218 151.569 507.011 146.23 506.374C136.471 505.202 127.02 502.207 118.366 497.544C114.164 495.276 110.195 492.665 106.658 489.462C103.205 486.302 100.087 482.794 97.3548 478.993C91.7284 471.27 87.3931 462.665 83.6764 453.886C83.3325 453.078 82.9955 452.264 82.6655 451.443C83.4616 451.427 84.2577 451.415 85.0538 451.415C89.1067 451.415 93.1619 451.462 97.2148 451.506C112.231 451.672 127.247 451.856 142.273 451.973C153.946 452.064 165.693 452.125 177.329 451.455C177.357 450.966 177.379 450.477 177.397 449.988C177.441 448.68 177.537 447.388 177.649 446.101C172.963 446.201 168.275 446.234 163.597 446.316Z" fill="#313A3A"/>
<path d="M179.393 407.028C180.794 404.545 181.088 404.559 182.173 403.681C182.887 403.69 183.594 403.537 184.24 403.232C184.326 403.232 184.412 403.232 184.499 403.232C185.058 403.238 185.612 403.125 186.124 402.901C186.637 402.677 187.096 402.346 187.471 401.931C187.704 401.831 187.938 401.726 188.171 401.614C188.655 401.375 189.076 401.024 189.397 400.59C192.464 400.397 195.28 399.409 198.25 398.488C205.309 396.313 211.982 396.619 219.065 397.521C219.298 397.552 219.548 397.589 219.8 397.629C221.257 398.738 222.704 399.857 223.895 401.228C224.983 402.331 225.988 403.513 226.902 404.765L226.986 404.882C227.016 404.882 229.087 408.684 231.002 412.798C231.304 413.486 231.549 414.198 231.735 414.926C233.577 414.543 235.346 413.917 236.679 412.978C237.567 412.398 238.391 411.726 239.135 410.971C239.875 410.205 240.849 409.336 241.395 408.418C241.405 408.405 241.413 408.391 241.421 408.376H241.451C241.272 410.565 239.18 413.174 237.879 414.842C236.726 416.316 234.564 418.491 232.58 419.117C232.858 421.284 232.435 424.284 231.989 426.208C233.273 428.878 238.727 436.234 246.17 439.079C255.485 442.639 264.683 449.021 271.453 455.08C278.109 461.034 283.532 468.325 286.808 476.619C290.777 486.692 290.651 498.488 288.442 508.939C287.249 514.62 284.971 519.742 281.231 524.241C279.274 526.598 276.895 529.016 274.25 530.618C270.235 533.055 261.891 536.708 252.657 536.895C249.349 536.963 245.98 536.918 242.789 536.077C242.021 535.874 240.921 535.496 240.128 535.232C240.609 534.848 240.969 534.334 241.166 533.751C242.334 529.766 236.364 526.447 233.203 525.706L232.928 525.648C232.907 525.587 232.881 525.526 232.86 525.463C232.178 523.382 231.667 521.248 231.333 519.084C230.012 510.674 233.306 501.116 239.383 495.106C242.805 491.743 247.125 489.443 251.824 488.481C254.516 487.967 257.28 487.951 259.979 488.434C262.379 488.843 264.72 489.525 267.139 489.836C267.508 489.883 267.47 489.565 267.139 489.469C261.027 487.668 255.172 485.933 248.831 487.584C238.881 490.175 232.134 498.598 229.185 507.974C227.809 512.341 227.465 516.968 228.181 521.49C228.374 522.771 228.639 524.04 228.978 525.29C227.191 525.354 225.443 525.834 223.874 526.692C223.373 527.014 222.948 527.441 222.627 527.944C221.733 527.185 220.699 526.218 219.609 525.141C219.681 524.933 219.754 524.725 219.821 524.517C220.433 522.697 220.953 520.847 221.455 519.039C224.187 509.408 227.616 499.981 230.276 490.329C232.923 480.714 234.639 470.908 234.602 460.92C234.602 460.858 234.577 460.798 234.533 460.755C234.489 460.711 234.43 460.686 234.368 460.686C234.306 460.686 234.247 460.711 234.203 460.755C234.159 460.798 234.135 460.858 234.135 460.92C234.069 466.615 233.262 472.158 232.087 477.738C230.051 487.393 226.867 496.75 223.552 506.038C221.988 510.422 220.536 514.867 218.841 519.203C216.973 517.955 215.262 516.608 213.27 515.465C212.017 514.744 210.551 513.977 209.028 513.686C209.028 513.394 209.028 513.094 209.028 512.791C209.005 510.763 208.928 508.441 208.795 506.017C208.491 500.238 207.898 493.851 207.025 489.392C206.143 484.875 201.889 464.973 200.192 459.619C199.639 457.874 199.116 456.075 198.532 454.295V454.246C198.042 452.761 195.116 443.088 193.905 440.847C191.756 436.792 189.275 432.923 186.488 429.278C185.757 428.318 182.472 423.798 180.308 420.144C177.938 416.096 177.04 411.224 179.393 407.028Z" fill="#E0A47C"/>
<path d="M236.672 412.985C235.339 413.919 233.57 414.55 231.728 414.933C231.542 414.205 231.297 413.493 230.995 412.805C229.076 408.691 227.009 404.891 226.979 404.889L226.895 404.772C227.873 404.865 230.922 405.202 232.15 405.423C234.163 405.788 236.268 405.949 238.22 406.458C238.921 406.638 241.696 407.276 241.456 408.163C241.43 408.252 241.405 408.339 241.377 408.425C240.83 409.345 239.857 410.212 239.117 410.978C238.375 411.732 237.556 412.405 236.672 412.985Z" fill="#A2624D"/>
<path d="M181.214 412.436C181.16 412.116 181.12 411.786 181.092 411.45C181.073 411.163 181.064 410.871 181.073 410.576C181.125 408.979 181.393 407.54 182.353 406.239C182.683 405.772 183.113 405.385 183.611 405.106C184.613 405.309 185.736 404.996 186.59 404.489C187.732 403.812 189.471 402.464 189.436 400.868C189.438 400.772 189.409 400.677 189.353 400.599C189.297 400.52 189.217 400.462 189.126 400.432C189.018 400.404 188.892 400.371 188.731 400.338C188.775 400.338 188.822 400.338 188.869 400.338C193.381 400.338 195.887 399.222 199.097 398.205C202.451 397.145 205.349 396.685 207.501 396.988C207.812 396.988 208.816 397.409 209.105 397.523C216.226 400.291 219.636 406.851 219.244 414.342C219.132 416.51 218.359 418.572 217.479 420.399C216.046 423.37 213.538 425.199 210.52 426.218C207.812 427.131 205.643 427.619 203 427.435C201.069 427.294 199.232 427.143 197.425 426.615C196.557 426.362 194.967 426.017 193.974 425.608C190.902 424.342 188.477 422.975 185.992 420.637C184.9 419.635 183.932 418.504 183.109 417.271C182.789 416.47 182.409 415.687 182.021 414.907C181.639 414.125 181.367 413.293 181.214 412.436Z" fill="#B26C59"/>
<path d="M219.793 397.645C221.861 397.984 224.418 398.642 226.36 398.813C225.795 399.67 224.506 400.64 223.888 401.249C222.697 399.873 221.25 398.754 219.793 397.645Z" fill="#A2624D"/>
<path d="M205.33 513.4C203.841 513.953 202.4 514.628 201.023 515.419C197.796 517.322 196.461 518.427 194.325 521.492C193.839 522.193 193.118 523.956 192.887 524.795C192.624 525.813 192.645 526.884 192.95 527.89C193.254 528.897 193.829 529.8 194.612 530.502C197.579 533.143 201.726 536.194 199.199 540.721C197.115 544.458 191.78 544.3 188.53 542.281C187.34 541.541 186.574 540.492 185.776 539.478C184.562 537.917 183.543 536.213 182.741 534.405C180.299 528.719 180.579 523.576 183.31 518.191C183.574 517.675 185.792 514.381 186.184 513.945C190.62 509.025 193.393 507.491 199.398 506.355C202.003 505.862 204.651 505.848 207.294 505.942C207.781 505.958 208.297 505.975 208.823 506C208.949 508.43 209.026 510.751 209.056 512.774C207.787 512.761 206.525 512.973 205.33 513.4V513.4Z" fill="#B26C59"/>
<path d="M213.151 535.533C213.868 535.101 214.951 533.914 215.042 533.804C217.143 531.261 218.53 528.254 219.618 525.141C220.708 526.21 221.743 527.178 222.637 527.944C221.948 528.95 221.395 530.385 221.537 531.835C221.151 532.413 220.737 532.971 220.295 533.508C220.204 533.618 219.361 534.701 218.404 535.234C217.559 535.724 216.618 536.025 215.645 536.114C214.673 536.203 213.693 536.079 212.773 535.75C212.902 535.68 213.028 535.608 213.151 535.533Z" fill="#6D554B"/>
<path d="M205.335 412.42C208.04 412.42 210.233 410.259 210.233 407.594C210.233 404.928 208.04 402.768 205.335 402.768C202.63 402.768 200.437 404.928 200.437 407.594C200.437 410.259 202.63 412.42 205.335 412.42Z" fill="#394687"/>
<path d="M205.568 410.581C207.114 410.581 208.367 409.346 208.367 407.822C208.367 406.299 207.114 405.064 205.568 405.064C204.022 405.064 202.769 406.299 202.769 407.822C202.769 409.346 204.022 410.581 205.568 410.581Z" fill="#201600"/>
<path d="M202.895 405.479C203.881 405.479 203.883 406.989 202.895 406.989C201.908 406.989 201.908 405.479 202.895 405.479Z" fill="white"/>
<path d="M183.611 405.106C184.613 405.309 185.736 404.996 186.59 404.489C186.81 404.361 187.057 404.204 187.291 404.022L187.321 404.038C190.771 405.206 192.775 411.59 190.937 415.349C188.136 421.097 181.05 415.022 181.335 409.918C181.284 408.817 181.518 407.722 182.014 406.738C182.116 406.564 182.228 406.394 182.348 406.232C182.681 405.767 183.112 405.383 183.611 405.106Z" fill="#6D4D54"/>
<path d="M180.142 409.03C180.198 407.003 180.779 405.211 182.01 403.952C181.665 403.43 181.534 402.794 181.644 402.178C181.754 401.562 182.098 401.012 182.603 400.642C183.147 400.231 183.709 400.175 184.251 400.063C185.563 399.778 187.732 400.119 188.85 400.364C189.004 400.397 189.137 400.429 189.247 400.457C189.338 400.487 189.418 400.546 189.473 400.625C189.529 400.703 189.558 400.798 189.555 400.894C189.583 402.184 188.453 403.312 187.417 404.055C187.169 404.23 186.929 404.386 186.716 404.522C185.864 405.029 184.739 405.342 183.737 405.138C183.239 405.418 182.809 405.805 182.479 406.271C182.359 406.434 182.247 406.604 182.145 406.778C181.445 407.946 181.246 409.215 181.2 410.609C181.191 410.9 181.198 411.192 181.221 411.483C181.241 411.813 181.281 412.142 181.34 412.469C181.629 414.194 182.278 415.839 183.245 417.297C183.313 417.47 183.383 417.64 183.443 417.815C183.023 417.147 182.47 416.706 182.005 416.059C181.58 415.436 181.234 414.764 180.973 414.057C180.369 412.452 180.087 410.744 180.142 409.03V409.03Z" fill="#38221F"/>
<path d="M189.392 411.24C190.3 411.473 191.421 412.389 192.446 413.197C193.748 414.227 195.07 415.346 196.365 416.575C198.569 418.677 201.291 421.079 203.304 423.744C203.537 424.059 203.397 424.361 203.138 424.106C200.803 421.798 198.439 419.535 196.088 417.388C194.92 416.33 193.776 415.197 192.616 414.169C191.551 413.235 190.44 412.457 189.399 411.366C189.338 411.298 189.35 411.231 189.392 411.24Z" fill="#291D11"/>
<path d="M188.01 413.09C190.571 416.098 192.761 419.404 194.533 422.936C196.298 426.4 198.294 430.289 198.712 434.279C198.765 434.804 198.373 434.842 198.259 434.323C197.376 430.284 194.88 425.276 192.985 421.833C190.937 418.112 189.644 416.341 187.825 413.235C187.806 413.21 187.797 413.179 187.801 413.148C187.805 413.117 187.821 413.089 187.845 413.07C187.87 413.051 187.901 413.042 187.932 413.046C187.962 413.049 187.991 413.065 188.01 413.09V413.09Z" fill="#291D11"/>
<path d="M186.252 413.669C187.354 416.166 187.709 418.932 187.653 421.651C187.585 425.031 187.608 425.421 186.887 428.32C186.817 428.6 186.49 428.624 186.532 428.343C186.945 425.617 186.833 424.933 186.999 422.198C187.155 419.546 186.457 416.4 185.82 413.837C185.752 413.58 186.142 413.419 186.252 413.669Z" fill="#291D11"/>
<path d="M222.641 527.937C222.961 527.434 223.387 527.007 223.888 526.685C225.457 525.827 227.204 525.347 228.991 525.283C228.653 524.033 228.387 522.764 228.195 521.483C227.479 516.961 227.822 512.334 229.199 507.967C232.148 498.591 238.895 490.168 248.845 487.577C255.185 485.926 261.041 487.661 267.153 489.462C267.479 489.558 267.517 489.876 267.153 489.829C264.734 489.521 262.392 488.839 259.992 488.427C257.294 487.944 254.53 487.96 251.838 488.474C247.139 489.436 242.818 491.736 239.396 495.099C233.327 501.109 230.025 510.665 231.347 519.077C231.681 521.241 232.192 523.375 232.874 525.456C232.895 525.519 232.92 525.58 232.941 525.641L233.217 525.699C236.378 526.44 242.336 529.759 241.18 533.744C240.987 534.339 240.624 534.866 240.137 535.258C238.736 536.454 236.275 537.126 233.922 537.075C230.922 537.024 229.554 537.308 226.766 536.549C224.766 536.014 223.778 535.615 222.704 534.419C222.042 533.707 221.632 532.798 221.537 531.831C221.399 530.378 221.952 528.944 222.641 527.937Z" fill="#B26C59"/>
<path d="M207.915 524.374C208.309 520.836 208.711 517.248 209.007 513.66H209.056C210.578 513.952 212.044 514.718 213.298 515.44C215.29 516.587 217.008 517.934 218.869 519.177C220.563 514.842 222.016 510.396 223.58 506.012C226.895 496.724 230.079 487.367 232.115 477.712C233.282 472.144 234.097 466.601 234.163 460.894C234.163 460.832 234.187 460.773 234.231 460.729C234.275 460.685 234.334 460.66 234.396 460.66C234.458 460.66 234.517 460.685 234.561 460.729C234.605 460.773 234.629 460.832 234.629 460.894C234.667 470.882 232.951 480.688 230.303 490.303C227.644 499.955 224.215 509.383 221.483 519.014C220.97 520.822 220.449 522.672 219.849 524.491C219.781 524.699 219.709 524.907 219.637 525.115C218.549 528.229 217.167 531.235 215.061 533.779C214.97 533.889 213.893 535.075 213.17 535.507C213.044 535.582 212.918 535.652 212.792 535.718C208.874 537.757 204.086 535.51 204.013 530.882C203.953 527.993 205.505 525.659 207.915 524.374Z" fill="#B26C59"/>
<defs>
<linearGradient id="paint0_linear" x1="205.609" y1="-6.41612" x2="142.936" y2="97.0553" gradientUnits="userSpaceOnUse">
<stop stop-color="#3E454B"/>
<stop offset="1" stop-color="#797B4B"/>
</linearGradient>
<linearGradient id="paint1_linear" x1="139.102" y1="349.355" x2="191.127" y2="228.15" gradientUnits="userSpaceOnUse">
<stop stop-color="#445629"/>
<stop offset="1" stop-color="#BBC7BB"/>
</linearGradient>
<linearGradient id="paint2_linear" x1="17349" y1="64119.4" x2="32137.9" y2="41854" gradientUnits="userSpaceOnUse">
<stop stop-color="#445629"/>
<stop offset="1" stop-color="#BBC7BB"/>
</linearGradient>
<linearGradient id="paint3_linear" x1="290.817" y1="103.76" x2="163.422" y2="202.043" gradientUnits="userSpaceOnUse">
<stop stop-color="#3D454B"/>
<stop offset="1" stop-color="#99C45A"/>
</linearGradient>
</defs>
</svg>
