<svg width="88" height="91" viewBox="0 0 88 91" fill="none" xmlns="http://www.w3.org/2000/svg">
<path d="M87.2725 90.725C87.5549 88.7395 87.2725 86.49 87.2935 84.6213C87.3168 81.8439 87.2445 79.0642 87.0367 76.2961C86.9371 74.9662 86.8009 73.6425 86.6281 72.3251C85.9698 69.6388 85.2274 66.9665 84.513 64.3013C81.478 53.1287 77.5769 42.1663 73.8649 31.2039C72.198 26.2845 70.2976 21.3324 67.405 16.9853C64.8813 13.1941 61.4214 10.363 57.3849 8.29105C53.2924 6.18874 48.8193 4.85962 44.3625 3.7781C39.4809 2.58913 34.5339 1.55197 29.5261 1.09414C24.0212 0.591919 18.6959 0.75544 13.2773 1.89069C9.32718 2.72227 6.30855 4.32703 4.17239 7.82854C0.282947 14.1588 0.76154 22.4279 0.90395 29.5688C0.997334 34.0654 1.06504 38.576 1.49227 43.0563C1.9195 47.5365 2.62455 52.2247 4.54359 56.3265C8.47973 64.7358 17.3582 69.8747 25.6087 73.2735C34.3774 76.9011 43.6108 78.7325 52.8955 80.4867C57.7328 81.4001 62.5724 82.3344 67.3326 83.5982C71.9131 84.8198 76.2578 86.5297 80.7262 88.0527C81.8048 88.4218 82.8717 88.8493 83.9153 89.3118C84.6466 89.6238 85.3958 89.8921 86.1589 90.1153C86.2768 90.3038 86.4411 90.4589 86.6361 90.5657C86.8311 90.6724 87.0502 90.7273 87.2725 90.725Z" fill="#3C5B28"/>
<path opacity="0.47" d="M87.2727 90.7248C87.3489 90.1509 87.3895 89.5728 87.3941 88.9939C86.8361 87.1696 86.2968 85.3406 85.6291 83.5536C84.0626 79.349 82.335 75.2285 80.1264 71.3182C80.0447 71.1734 79.9654 71.0239 79.893 70.879C81.9451 67.4079 83.012 62.9603 82.9513 58.7861C82.7552 58.125 82.5591 57.4616 82.356 56.8029C82.3817 57.1229 82.405 57.4733 82.4074 57.9054C82.419 59.7905 81.8074 61.9746 81.2891 64.6235C80.9599 66.2937 80.2455 67.4266 79.5638 68.9706C79.4541 69.2159 79.349 69.4635 79.2486 69.7111C76.4004 64.453 73.9608 59.0173 70.8931 53.9181C71.3054 53.1246 71.8316 52.3959 72.455 51.755C73.3561 50.802 74.2573 49.926 74.9203 48.7837C75.2518 48.2091 75.5857 47.5924 75.9008 46.9501C76.4679 45.0132 76.9124 43.0424 77.2316 41.0496L76.8043 39.7929C75.9008 43.278 75.3429 46.9571 72.8869 49.7835C72.1865 50.5987 70.9632 51.6522 70.2091 52.8202C69.2099 51.2142 68.1284 49.6611 66.9687 48.1671C64.7304 45.3303 62.3221 42.632 59.7571 40.0872C62.3065 36.8006 60.775 30.3185 60.1119 26.9384C60.0077 26.4058 59.9003 25.8733 59.7898 25.3407C61.5734 20.8487 59.7291 15.4061 61.7228 10.9959L61.564 10.8791C59.1734 14.2708 59.9649 18.7371 59.2154 22.6801C58.8909 21.2599 58.5361 19.8466 58.1369 18.4615C57.3968 15.892 56.4373 13.3669 55.5851 10.8301C55.1462 9.5243 54.6513 8.20919 54.2894 6.85904C53.8715 6.68852 53.4513 6.52734 53.0288 6.36617C53.1898 9.13421 54.3992 12.0634 55.0855 14.5068C56.0311 17.8635 56.8505 21.2201 57.6256 24.6165C58.2606 27.4056 58.9446 30.1923 59.2131 33.0468C59.3509 34.5184 59.7828 37.5691 58.6925 39.0267C55.1906 35.6093 51.4552 32.4021 47.6895 29.3491C43.746 26.1622 39.511 23.3545 35.0407 20.9632C35.2298 20.3582 35.0687 19.6224 35.0407 19.0945C34.959 17.5504 35.0827 15.8382 34.9496 14.2965C34.7675 12.1942 34.4827 9.95411 33.5489 8.034C32.7107 6.31244 31.6088 4.71002 30.6213 3.07255C30.2641 2.4769 29.8228 1.79714 29.4353 1.07769C29.1622 1.05199 28.8867 1.03097 28.6135 1.00761L28.6695 1.14544C29.4446 3.05854 30.5115 4.82447 31.5061 6.62545C31.9602 7.44877 32.3399 8.31104 32.6407 9.20195C31.8997 8.12252 30.96 7.19419 29.8719 6.46661C28.5668 5.59298 27.0003 5.22626 25.6696 4.37599C24.2081 3.44163 22.9264 2.15454 21.7965 0.846436H21.7475C23.433 2.71515 25.149 4.49044 27.2921 5.84059C28.5622 6.63947 29.8602 7.26082 30.9038 8.37505C32.2041 9.77659 32.8065 11.4117 33.4275 13.1777C33.4381 13.2029 33.4523 13.2264 33.4695 13.2477C33.4812 13.3832 33.4975 13.514 33.5092 13.6518C33.6493 15.3103 33.7566 16.9712 33.8103 18.6343C33.829 19.1739 33.7543 19.7672 33.7963 20.3185C31.1209 18.917 28.3824 17.6345 25.6019 16.4526C23.8369 15.7028 22.0393 15.023 20.2627 14.2989C20.2619 14.2222 20.2446 14.1467 20.212 14.0773C20.1793 14.008 20.1321 13.9465 20.0736 13.8971C19.1584 13.1823 18.367 12.9838 17.6666 11.9139C17.0841 10.9695 16.602 9.9666 16.2285 8.92164C15.2796 6.52651 14.1648 4.20054 12.8923 1.96066L12.7009 2.00505C13.3699 3.61687 13.9559 5.26194 14.4565 6.93379C14.8744 8.38438 15.2012 9.83031 15.7872 11.2295C15.9835 11.6996 16.2033 12.1596 16.4456 12.6077C15.2736 12.0353 14.1411 11.3853 13.0557 10.6619C11.3328 9.49394 9.80132 8.10641 8.05971 6.96883C7.39435 6.53202 6.62159 6.08587 5.87919 5.58598C5.73678 5.73081 5.59904 5.87796 5.46363 6.03213C6.57724 6.99686 7.8706 7.8121 8.97954 8.72543C9.75929 9.36313 10.5204 9.98915 11.2838 10.5942C8.67371 10.0055 5.56169 10.8277 2.80686 10.4937C2.74616 10.6385 2.68779 10.7834 2.63176 10.9305C3.65042 11.1093 4.68416 11.1875 5.7181 11.1641C8.09006 11.1805 11.5313 10.6152 13.4223 12.3321C13.4578 12.3658 13.5011 12.3902 13.5484 12.4033C13.5956 12.4163 13.6453 12.4175 13.6931 12.4068C15.1638 13.4691 16.7264 14.3978 18.3623 15.1818C20.6292 16.2564 22.9474 17.2094 25.254 18.1952C22.072 18.0854 18.8059 18.5409 16.1117 19.0408C11.4425 19.9074 5.73445 21.2552 0.892486 19.9751C0.892486 20.1269 0.876144 20.2788 0.869141 20.4423C4.80994 21.7971 9.43478 21.3323 13.4316 20.7647C16.623 20.3115 19.7584 19.6668 23.0035 19.6154C25.6548 19.591 28.2934 19.9851 30.8221 20.7833C34.3313 22.5552 37.72 24.5567 40.9659 26.7749C38.8647 26.7516 36.5862 27.4173 34.9309 27.8611C30.1684 29.1388 25.9241 31.1687 21.6587 33.6261C15.7242 37.0459 8.55464 41.3579 1.37341 41.7107C1.3991 42.0283 1.42478 42.3437 1.45513 42.6614C7.05816 42.5936 13.0721 39.8583 17.5639 37.4523C22.2331 34.9389 26.7318 32.1194 31.7489 30.3512C35.3979 29.0641 40.1745 27.2982 43.9332 28.9029C48.515 32.3615 52.8342 36.1553 56.8552 40.2531C55.1019 40.0008 51.8031 41.5401 51.0187 41.8882C46.8442 43.7464 43.058 46.3768 39.8593 49.641C37.9916 51.5354 36.243 53.5443 34.5037 55.5602C32.636 56.8006 30.9084 58.2722 28.8213 59.2135C25.7852 60.539 22.5232 61.2693 19.2121 61.3649C15.2993 61.5284 10.6931 61.407 6.74066 60.0451C6.92276 60.2974 7.11186 60.5473 7.3033 60.7949C11.069 62.1708 15.416 62.3857 19.2098 62.2619C22.4791 62.192 25.7088 61.5296 28.7419 60.3068C29.5964 59.9517 30.5232 59.5382 31.4477 59.0594C30.5652 60.0474 29.6688 61.0215 28.7396 61.9676C25.8167 64.9365 22.3941 68.2418 18.3833 69.8185C18.6946 69.9945 19.0059 70.1666 19.3171 70.3347C21.9809 69.5289 24.4883 67.8727 26.5777 66.2446C30.5232 63.1705 33.6656 59.3747 36.913 55.6022C40.3706 51.5868 44.0242 47.527 48.7518 44.9879C50.8529 43.855 54.8988 41.6055 57.1073 42.2549C57.4178 42.346 60.7446 44.3572 62.0356 45.8312C64.3888 48.4902 66.5358 51.3248 68.4581 54.3105C68.4433 54.3177 68.4292 54.3263 68.4161 54.3362C68.4384 54.412 68.4486 54.4908 68.4465 54.5698C68.4254 55.5041 67.8558 56.5319 67.1531 57.2397C65.9344 58.8421 63.901 60.3044 62.736 61.2762C59.4669 64.0255 55.9809 66.5058 52.312 68.6926C48.5557 70.9047 44.5822 72.374 40.562 74.0161C38.7527 74.7543 36.9504 75.5135 35.1761 76.3334L34.8679 76.4735L35.3348 76.609C35.9838 76.3754 36.6259 76.1698 37.2165 75.9269C39.306 75.0696 41.3978 74.2311 43.5199 73.4532C47.5801 71.9796 51.4701 70.0734 55.1229 67.7676C58.3797 65.7054 61.4736 63.3962 64.3773 60.8604C65.0029 60.3138 65.778 59.669 66.5344 58.9543C66.4621 59.1715 66.392 59.3841 66.322 59.5896C65.3419 62.5406 63.996 65.3571 62.3158 67.9732C59.0917 72.958 54.5953 77.6718 48.9129 79.7321L49.1837 79.7858C54.2334 78.2324 58.2653 74.3969 61.5057 70.3067C63.5639 67.7677 65.3627 65.0288 66.8753 62.1311C67.8651 60.1736 68.164 57.9265 69.6768 56.3287C69.8589 56.6394 70.041 56.9477 70.2184 57.2631C72.469 61.3018 74.3553 65.5298 76.4728 69.6433C77.5654 71.762 78.6323 73.848 79.6432 75.9643C79.5608 75.9838 79.4821 76.0161 79.4097 76.06C78.0837 76.8683 76.4284 76.6207 74.974 77.1065C73.8156 77.5093 72.7312 78.0996 71.7639 78.8538C69.9126 80.2553 68.3741 81.9792 66.5764 83.4205C66.8099 83.4812 67.0434 83.5396 67.2768 83.6027C68.7196 82.6052 70.0106 81.3976 71.4161 80.295C72.7398 79.2556 74.1265 78.2815 75.7864 77.8704C77.1872 77.5223 78.6113 77.8166 79.9887 77.4359C80.0905 77.4071 80.1857 77.3587 80.2689 77.2934C81.2401 79.3794 82.1529 81.498 82.9723 83.6961C83.7124 85.6793 84.3077 87.7045 84.924 89.7274C85.3303 89.8699 85.7412 90.003 86.1544 90.1315C86.2747 90.3177 86.4406 90.4699 86.6363 90.5738C86.8321 90.6776 87.0511 90.7296 87.2727 90.7248Z" fill="#8F9648"/>
</svg>
